<svg width="254" height="254" viewBox="0 0 254 254" fill="none" xmlns="http://www.w3.org/2000/svg">
<g clip-path="url(#clip0_871_5167)">
<path d="M178.421 241.732C174.321 241.732 170.998 238.409 170.998 234.31C170.998 230.21 174.321 226.887 178.421 226.887C200.625 226.887 218.691 208.822 218.691 186.616V118.122C218.691 67.8607 177.8 26.9691 127.538 26.9691C77.2754 26.9691 36.3844 67.8607 36.3844 118.122V179.083C36.3844 183.183 33.0611 186.506 28.9619 186.506C24.8626 186.506 21.5393 183.183 21.5393 179.083V118.122C21.5393 89.8093 32.565 63.1904 52.5853 43.1701C72.6057 23.1497 99.2246 12.1235 127.538 12.1235C155.851 12.1235 182.47 23.1492 202.49 43.1701C222.51 63.1904 233.537 89.8093 233.537 118.122V186.616C233.537 217.007 208.811 241.732 178.421 241.732Z" fill="#F2ECFF"/>
<path d="M202.49 43.1701C182.47 23.1497 155.851 12.1235 127.538 12.1235C126.138 12.1235 124.744 12.1583 123.353 12.2118C150.095 13.2432 175.09 24.1389 194.12 43.1701C214.14 63.1904 225.166 89.8093 225.166 118.122V186.616C225.166 214.933 203.7 238.327 176.187 241.389C176.891 241.611 177.642 241.732 178.42 241.732C208.811 241.732 233.536 217.007 233.536 186.616V118.122C233.536 89.8093 222.51 63.1904 202.49 43.1701Z" fill="#DCCDFF"/>
<path d="M169.258 250.289H151.201C144.202 250.289 138.529 244.615 138.529 237.617V231.002C138.529 224.003 144.202 218.33 151.201 218.33H169.258C176.256 218.33 181.93 224.003 181.93 231.002V237.617C181.93 244.615 176.256 250.289 169.258 250.289Z" fill="#F2ECFF"/>
<path d="M170.97 218.444C171.043 218.995 171.085 219.555 171.085 220.125V226.804C171.085 233.785 165.426 239.443 158.445 239.443H140.324C139.754 239.443 139.194 239.402 138.644 239.329C139.466 245.515 144.758 250.289 151.169 250.289H169.29C176.271 250.289 181.93 244.63 181.93 237.649V230.97C181.93 224.559 177.156 219.266 170.97 218.444Z" fill="#C8B2FB"/>
<path d="M46.5768 81.6835L29.0518 73.7822C25.7811 72.3078 24.4183 68.3827 26.0792 65.2027C45.6997 27.639 84.8281 3.71143 127.538 3.71143C170.248 3.71143 209.376 27.639 228.996 65.2022C230.657 68.3822 229.295 72.3073 226.024 73.7817L208.498 81.683C205.517 83.0269 201.998 81.8452 200.448 78.9659C186.106 52.3103 158.088 35.3816 127.537 35.3816C96.9874 35.3816 68.9695 52.3098 54.6264 78.9659C53.0776 81.8457 49.5583 83.0274 46.5768 81.6835Z" fill="#F2ECFF"/>
<path d="M228.996 65.2025C212.04 32.7401 180.514 10.465 144.698 5.01294C169.848 15.0167 191.1 33.7839 203.966 58.414C205.626 61.5939 204.264 65.5185 200.993 66.9934L194.719 69.8221C196.811 72.7238 198.73 75.7728 200.448 78.9656C201.998 81.8455 205.517 83.0272 208.498 81.6827L226.024 73.7815C229.294 72.3071 230.657 68.3825 228.996 65.2025Z" fill="#DCCDFF"/>
<path d="M33.7623 199.794H24.1614C16.2909 199.794 9.91064 193.414 9.91064 185.543V131.778C9.91064 123.907 16.2909 117.527 24.1614 117.527H33.7623C41.6329 117.527 48.0131 123.907 48.0131 131.778V185.543C48.0136 193.414 41.6329 199.794 33.7623 199.794Z" fill="#F2ECFF"/>
<path d="M229.839 199.794H220.238C212.368 199.794 205.988 193.414 205.988 185.543V131.778C205.988 123.907 212.368 117.527 220.238 117.527H229.839C237.71 117.527 244.09 123.907 244.09 131.778V185.543C244.09 193.414 237.71 199.794 229.839 199.794Z" fill="#F2ECFF"/>
<path d="M33.9687 117.531C33.9691 117.588 33.9731 117.644 33.9731 117.702V171.538C33.9731 179.389 27.6087 185.753 19.758 185.753H10.0852C10.0282 185.753 9.9716 185.75 9.91455 185.749C10.0063 193.521 16.332 199.794 24.1257 199.794H33.798C41.6487 199.794 48.0131 193.429 48.0131 185.579V131.743C48.0136 123.948 41.7405 117.623 33.9687 117.531Z" fill="#C8B2FB"/>
<path d="M230.046 117.531C230.047 117.588 230.051 117.644 230.051 117.702V171.538C230.051 179.389 223.686 185.753 215.836 185.753H206.163C206.106 185.753 206.05 185.75 205.993 185.749C206.084 193.521 212.41 199.794 220.204 199.794H229.876C237.727 199.794 244.091 193.429 244.091 185.579V131.743C244.091 123.948 237.818 117.623 230.046 117.531Z" fill="#C8B2FB"/>
<path d="M236.781 115.39C236.455 101.828 233.713 88.7085 228.606 76.3215C230.372 75.122 231.737 73.3777 232.442 71.3393C233.333 68.7621 233.121 65.8986 231.859 63.4841C224.022 48.4798 213.263 35.5699 199.883 25.1143C198.268 23.8527 195.935 24.1379 194.673 25.7537C193.411 27.369 193.697 29.7016 195.312 30.9637C207.853 40.763 217.936 52.8608 225.28 66.9216C225.604 67.5422 225.657 68.2496 225.427 68.9134C225.196 69.5811 224.715 70.1085 224.072 70.3982L206.547 78.3C205.342 78.8422 203.912 78.363 203.29 77.2076C188.177 49.1192 158.987 31.6701 127.111 31.6701C95.2355 31.6701 66.0454 49.1192 50.9319 77.2076C50.3098 78.363 48.879 78.8432 47.6755 78.3L30.15 70.3977C29.5071 70.1085 29.0259 69.5811 28.7952 68.9139C28.5655 68.2501 28.6176 67.5417 28.942 66.9211C48.1116 30.221 85.7274 7.42255 127.111 7.42255C146.448 7.42255 165.555 12.5452 182.366 22.2369C184.142 23.2584 186.412 22.6506 187.436 20.8751C188.459 19.0991 187.849 16.83 186.074 15.806C168.137 5.46546 147.748 0 127.111 0C105.517 0 84.3145 5.94717 65.7963 17.1991C47.3411 28.4118 32.3224 44.4173 22.3628 63.4841C21.1013 65.8996 20.8889 68.7626 21.7804 71.3403C22.4859 73.3792 23.8511 75.123 25.6177 76.3225C20.5675 88.5726 17.8246 101.537 17.4495 114.941C10.6377 117.484 5.77296 124.055 5.77296 131.742V162.296C5.77296 164.346 7.43437 166.007 9.48423 166.007C11.5341 166.007 13.1955 164.346 13.1955 162.296V131.742C13.1955 125.95 17.9074 121.238 23.6993 121.238H33.3716C39.1635 121.238 43.8754 125.951 43.8754 131.742V185.578C43.8754 191.37 39.1635 196.082 33.3716 196.082H23.6988C17.9069 196.082 13.195 191.37 13.195 185.578V178.595C13.195 176.545 11.5336 174.884 9.48374 174.884C7.43388 174.884 5.77246 176.545 5.77246 178.595V185.578C5.77246 195.463 13.8141 203.505 23.6993 203.505H33.3716C43.2563 203.505 51.2985 195.463 51.2985 185.578V131.742C51.2985 124.095 46.4839 117.555 39.7281 114.984C40.0853 104.809 42.1818 94.9325 45.9684 85.5469C50.3901 86.8159 55.2375 84.8722 57.4694 80.7244C71.2866 55.0451 97.972 39.0927 127.112 39.0927C156.252 39.0927 182.937 55.0446 196.755 80.7244C198.533 84.0289 201.972 85.9413 205.532 85.9413C206.441 85.9413 207.359 85.8133 208.258 85.5553C211.997 94.8243 214.085 104.573 214.479 114.616C207.173 116.881 201.851 123.701 201.851 131.742V185.578C201.851 192.443 205.731 198.416 211.412 201.427C206.301 212.916 195.532 221.093 183.038 222.829C181.813 220.697 180.111 218.834 178.008 217.413C176.31 216.266 174.003 216.713 172.855 218.411C171.708 220.109 172.155 222.416 173.853 223.564C176.32 225.231 177.792 227.999 177.792 230.97V237.649C177.792 242.572 173.787 246.577 168.864 246.577H150.743C145.82 246.577 141.814 242.572 141.814 237.649V230.97C141.814 226.047 145.819 222.041 150.743 222.041H158.319C160.369 222.041 162.03 220.38 162.03 218.33C162.03 216.28 160.369 214.619 158.319 214.619H150.743C141.727 214.619 134.392 221.954 134.392 230.97V237.649C134.392 246.665 141.727 254 150.743 254H168.864C175.16 254 180.633 250.42 183.364 245.191C195.385 244.102 206.604 239.42 215.894 231.576C224.939 223.941 231.362 214.011 234.567 202.756C241.965 200.548 247.376 193.685 247.376 185.578V131.742C247.375 124.469 243.019 118.199 236.781 115.39ZM39.1531 82.5996C35.1114 92.5607 32.8299 103.032 32.3497 113.816H24.9192C25.4029 101.925 27.8883 90.421 32.3303 79.5238L39.1531 82.5996ZM221.872 113.816C221.392 103.031 219.111 92.5607 215.068 82.6001L221.892 79.5233C226.334 90.4205 228.819 101.926 229.302 113.816H221.872ZM185.215 237.508V230.97C185.215 230.646 185.204 230.324 185.185 230.003C200.085 227.532 212.797 217.443 218.614 203.463C218.999 203.488 219.385 203.505 219.776 203.505H226.536C220.231 221.482 204.09 234.801 185.215 237.508ZM239.952 185.578C239.952 191.37 235.241 196.082 229.449 196.082H219.776C213.984 196.082 209.273 191.37 209.273 185.578V131.742C209.273 125.95 213.985 121.238 219.776 121.238H229.449C235.241 121.238 239.952 125.951 239.952 131.742V185.578Z" fill="#7747E1"/>
<path d="M134.554 173.494C134.096 173.494 133.631 173.409 133.18 173.23C131.27 172.471 130.337 170.307 131.098 168.398L146.472 129.741C147.232 127.832 149.396 126.898 151.304 127.659C153.214 128.418 154.147 130.582 153.387 132.491L138.012 171.147C137.432 172.606 136.033 173.494 134.554 173.494Z" fill="black"/>
<path d="M170.388 173.494C169.888 173.494 169.38 173.393 168.892 173.179C167.011 172.352 166.156 170.156 166.983 168.275L181.683 134.836H166.117C164.062 134.836 162.396 133.171 162.396 131.116C162.396 129.06 164.062 127.395 166.117 127.395H187.383C188.64 127.395 189.812 128.03 190.499 129.082C191.185 130.134 191.295 131.462 190.789 132.613L173.796 171.27C173.184 172.664 171.819 173.494 170.388 173.494Z" fill="black"/>
<path d="M115.193 173.493C115.182 173.493 115.171 173.493 115.16 173.493C113.106 173.475 111.454 171.795 111.472 169.74C111.492 167.404 111.513 164.797 111.533 162.084H95.9467C94.6306 162.084 93.4122 161.388 92.743 160.255C92.0737 159.121 92.0534 157.718 92.6894 156.565C94.8628 152.626 105.817 132.836 108.037 130.113C109.891 127.839 112.389 126.913 114.724 127.635C117.085 128.367 118.763 130.663 118.998 133.485C119.114 134.878 119.081 145.207 119.025 154.642H120.223C122.277 154.642 123.943 156.307 123.943 158.362C123.943 160.418 122.277 162.083 120.223 162.083H118.975C118.95 165.566 118.926 168.392 118.914 169.804C118.896 171.848 117.233 173.493 115.193 173.493ZM102.266 154.642H111.582C111.619 148.286 111.643 142.154 111.633 138.243C109.402 141.984 105.862 148.198 102.266 154.642Z" fill="black"/>
<path d="M76.7748 173.879C69.3468 173.879 68.8006 173.697 68.3011 173.531C67.0608 173.117 66.1346 172.18 65.7591 170.96C65.1117 168.856 66.0161 167.672 68.4325 164.508C70.3981 161.934 74.0577 157.143 80.189 148.382C82.0101 145.781 83.1849 143.45 83.682 141.452L83.8139 140.419C83.7033 137.113 80.9792 134.457 77.6465 134.457C74.7037 134.457 72.1572 136.548 71.5912 139.428C71.1948 141.444 69.2392 142.755 67.2231 142.362C65.2069 141.966 63.8933 140.011 64.2892 137.994C65.5388 131.633 71.1561 127.016 77.646 127.016C85.1514 127.016 91.2578 133.122 91.2578 140.628C91.2578 140.785 91.2479 140.943 91.2275 141.098L91.0366 142.594C91.0207 142.719 90.9988 142.842 90.9706 142.964C90.2825 145.931 88.7059 149.19 86.2845 152.649C81.7164 159.175 78.4968 163.536 76.3169 166.429C79.9776 166.44 84.696 166.396 89.1286 166.34C91.1854 166.324 92.8701 167.959 92.8959 170.013C92.9217 172.068 91.2772 173.754 89.2223 173.78C83.7192 173.851 79.7097 173.879 76.7748 173.879Z" fill="black"/>
</g>
<defs>
<clipPath id="clip0_871_5167">
<rect width="254" height="254" fill="white"/>
</clipPath>
</defs>
</svg>
