<svg width="258" height="258" viewBox="0 0 258 258" fill="none" xmlns="http://www.w3.org/2000/svg">
<path d="M245.906 80.625V129C245.906 133.277 244.207 137.378 241.183 140.402C238.159 143.426 234.058 145.125 229.781 145.125H84.6562C80.3796 145.125 76.2782 143.426 73.2542 140.402C70.2301 137.378 68.5312 133.277 68.5312 129V80.625H245.906Z" fill="#C8B2FB"/>
<path d="M68.5312 56.4375V64.5H245.906V56.4375C245.906 52.1609 244.207 48.0594 241.183 45.0354C238.159 42.0114 234.058 40.3125 229.781 40.3125H84.6562C80.3796 40.3125 76.2782 42.0114 73.2542 45.0354C70.2301 48.0594 68.5312 52.1609 68.5312 56.4375Z" fill="#C8B2FB"/>
<path d="M68.5312 64.5H245.906V80.625H68.5312V64.5Z" fill="#8E6AE1"/>
<path d="M217.688 129C224.367 129 229.781 123.585 229.781 116.906C229.781 110.227 224.367 104.812 217.688 104.812C211.008 104.812 205.594 110.227 205.594 116.906C205.594 123.585 211.008 129 217.688 129Z" fill="#F7941D"/>
<path d="M12.0938 169.312V245.906H52.4062V237.844V181.406V169.312H12.0938Z" fill="#8E6AE1"/>
<path d="M40.3125 169.312H52.4062V245.906H40.3125V169.312Z" fill="#C8B2FB"/>
<path d="M179.068 191.565L229.459 162.459C232.239 160.856 235.542 160.422 238.641 161.253C241.741 162.085 244.383 164.114 245.987 166.894C247.591 169.674 248.024 172.977 247.193 176.076C246.361 179.176 244.332 181.818 241.553 183.422L150.414 240.109C144.371 243.868 137.254 245.522 130.173 244.814L62.0812 238.005C61.0097 237.896 59.9333 237.842 58.8563 237.844H52.4062V181.406H57.3647C59.4153 181.406 61.4471 181.015 63.3511 180.253L86.7323 170.901C95.8778 167.241 105.923 166.462 115.524 168.667L170.179 181.217C171.713 181.628 173.152 182.336 174.412 183.303C175.672 184.27 176.73 185.475 177.524 186.85C178.318 188.226 178.834 189.744 179.042 191.319C179.249 192.893 179.144 194.493 178.734 196.028C178.322 197.562 177.613 199 176.646 200.26C175.679 201.52 174.473 202.577 173.097 203.371C171.722 204.165 170.203 204.681 168.628 204.888C167.053 205.095 165.453 204.989 163.919 204.578L124.969 196.999" fill="#F2ECFF"/>
<path d="M197.531 129C204.21 129 209.625 123.585 209.625 116.906C209.625 110.227 204.21 104.812 197.531 104.812C190.852 104.812 185.438 110.227 185.438 116.906C185.438 123.585 190.852 129 197.531 129Z" fill="#F15A29"/>
<path d="M84.6562 149.156H229.781C235.125 149.15 240.248 147.024 244.027 143.246C247.805 139.467 249.931 134.344 249.938 129V56.4375C249.931 51.0937 247.805 45.9706 244.027 42.1919C240.248 38.4133 235.125 36.2877 229.781 36.2812H84.6562C79.3124 36.2877 74.1893 38.4133 70.4107 42.1919C66.6321 45.9706 64.5064 51.0937 64.5 56.4375V129C64.5064 134.344 66.6321 139.467 70.4107 143.246C74.1893 147.024 79.3124 149.15 84.6562 149.156ZM229.781 141.094H84.6562C81.4488 141.094 78.3727 139.82 76.1047 137.552C73.8367 135.284 72.5625 132.207 72.5625 129V84.6562H241.875V129C241.875 132.207 240.601 135.284 238.333 137.552C236.065 139.82 232.989 141.094 229.781 141.094ZM72.5625 68.5312H241.875V76.5938H72.5625V68.5312ZM84.6562 44.3438H229.781C232.989 44.3438 236.065 45.6179 238.333 47.8859C240.601 50.1539 241.875 53.23 241.875 56.4375V60.4688H72.5625V56.4375C72.5625 53.23 73.8367 50.1539 76.1047 47.8859C78.3727 45.6179 81.4488 44.3438 84.6562 44.3438Z" fill="#7747E1"/>
<path d="M217.688 100.781C214.001 100.787 210.429 102.059 207.569 104.385C205.203 102.465 202.342 101.255 199.316 100.895C196.29 100.534 193.225 101.038 190.474 102.349C187.723 103.659 185.4 105.722 183.773 108.298C182.147 110.875 181.283 113.859 181.283 116.906C181.283 119.953 182.147 122.938 183.773 125.514C185.4 128.091 187.723 130.154 190.474 131.464C193.225 132.774 196.29 133.279 199.316 132.918C202.342 132.558 205.203 131.347 207.569 129.427C209.575 131.055 211.942 132.177 214.471 132.699C217.001 133.221 219.619 133.127 222.105 132.426C224.591 131.726 226.872 130.438 228.757 128.672C230.641 126.905 232.074 124.712 232.934 122.277C233.794 119.841 234.057 117.235 233.7 114.677C233.343 112.119 232.376 109.684 230.882 107.577C229.388 105.471 227.409 103.754 225.113 102.571C222.817 101.388 220.27 100.775 217.688 100.781ZM197.531 124.969C195.937 124.969 194.378 124.496 193.052 123.61C191.726 122.724 190.693 121.465 190.082 119.992C189.472 118.518 189.313 116.897 189.624 115.333C189.935 113.769 190.703 112.333 191.83 111.205C192.958 110.078 194.394 109.31 195.958 108.999C197.522 108.688 199.143 108.847 200.617 109.458C202.09 110.068 203.349 111.101 204.235 112.427C205.121 113.753 205.594 115.312 205.594 116.906C205.594 119.045 204.744 121.095 203.232 122.607C201.72 124.119 199.67 124.969 197.531 124.969ZM217.688 124.969C215.761 124.974 213.898 124.277 212.447 123.01C213.251 121.075 213.664 119.001 213.664 116.906C213.664 114.812 213.251 112.737 212.447 110.803C213.898 109.535 215.761 108.839 217.688 108.844C219.826 108.844 221.877 109.693 223.389 111.205C224.901 112.717 225.75 114.768 225.75 116.906C225.75 119.045 224.901 121.095 223.389 122.607C221.877 124.119 219.826 124.969 217.688 124.969Z" fill="#7747E1"/>
<path d="M145.125 124.969H92.7188C91.6496 124.969 90.6242 125.393 89.8682 126.149C89.1122 126.905 88.6875 127.931 88.6875 129C88.6875 130.069 89.1122 131.095 89.8682 131.851C90.6242 132.607 91.6496 133.031 92.7188 133.031H145.125C146.194 133.031 147.22 132.607 147.976 131.851C148.732 131.095 149.156 130.069 149.156 129C149.156 127.931 148.732 126.905 147.976 126.149C147.22 125.393 146.194 124.969 145.125 124.969Z" fill="#7747E1"/>
<path d="M92.7188 120.938H96.75C97.8192 120.938 98.8445 120.513 99.6005 119.757C100.357 119.001 100.781 117.975 100.781 116.906C100.781 115.837 100.357 114.812 99.6005 114.056C98.8445 113.3 97.8192 112.875 96.75 112.875H92.7188C91.6496 112.875 90.6242 113.3 89.8682 114.056C89.1122 114.812 88.6875 115.837 88.6875 116.906C88.6875 117.975 89.1122 119.001 89.8682 119.757C90.6242 120.513 91.6496 120.938 92.7188 120.938Z" fill="#8E6AE1"/>
<path d="M108.844 120.938H112.875C113.944 120.938 114.97 120.513 115.726 119.757C116.482 119.001 116.906 117.975 116.906 116.906C116.906 115.837 116.482 114.812 115.726 114.056C114.97 113.3 113.944 112.875 112.875 112.875H108.844C107.775 112.875 106.749 113.3 105.993 114.056C105.237 114.812 104.812 115.837 104.812 116.906C104.812 117.975 105.237 119.001 105.993 119.757C106.749 120.513 107.775 120.938 108.844 120.938Z" fill="#8E6AE1"/>
<path d="M124.969 120.938H129C130.069 120.938 131.095 120.513 131.851 119.757C132.607 119.001 133.031 117.975 133.031 116.906C133.031 115.837 132.607 114.812 131.851 114.056C131.095 113.3 130.069 112.875 129 112.875H124.969C123.9 112.875 122.874 113.3 122.118 114.056C121.362 114.812 120.938 115.837 120.938 116.906C120.938 117.975 121.362 119.001 122.118 119.757C122.874 120.513 123.9 120.938 124.969 120.938Z" fill="#8E6AE1"/>
<path d="M145.125 112.875H141.094C140.025 112.875 138.999 113.3 138.243 114.056C137.487 114.812 137.062 115.837 137.062 116.906C137.062 117.975 137.487 119.001 138.243 119.757C138.999 120.513 140.025 120.938 141.094 120.938H145.125C146.194 120.938 147.22 120.513 147.976 119.757C148.732 119.001 149.156 117.975 149.156 116.906C149.156 115.837 148.732 114.812 147.976 114.056C147.22 113.3 146.194 112.875 145.125 112.875Z" fill="#8E6AE1"/>
<path d="M249.474 164.878C247.323 161.187 243.801 158.495 239.674 157.389C235.547 156.284 231.151 156.854 227.443 158.976L181.406 185.566C180.362 183.542 178.905 181.759 177.128 180.333C175.352 178.907 173.297 177.869 171.094 177.286L116.427 164.737C106.028 162.338 95.1446 163.182 85.2408 167.156L61.8595 176.512C60.4289 177.085 58.9017 177.378 57.3606 177.375H56.4375V169.312C56.4375 168.243 56.0128 167.218 55.2568 166.462C54.5008 165.706 53.4754 165.281 52.4062 165.281H12.0937C11.0246 165.281 9.99923 165.706 9.24323 166.462C8.48722 167.218 8.0625 168.243 8.0625 169.312V245.906C8.0625 246.975 8.48722 248.001 9.24323 248.757C9.99923 249.513 11.0246 249.938 12.0937 249.938H52.4062C53.4754 249.938 54.5008 249.513 55.2568 248.757C56.0128 248.001 56.4375 246.975 56.4375 245.906V241.875H58.8562C59.7942 241.875 60.7348 241.922 61.6781 242.016L129.778 248.825C130.963 248.943 132.151 249.002 133.342 249.002C140.13 248.999 146.783 247.104 152.555 243.532L243.584 186.905C247.28 184.759 249.975 181.236 251.079 177.108C252.183 172.98 251.605 168.582 249.474 164.878ZM48.375 241.875H16.125V173.344H48.375V241.875ZM239.424 179.999L148.29 236.687C142.994 239.959 136.772 241.405 130.576 240.803L62.4844 233.99C61.275 233.872 60.0656 233.812 58.8562 233.812H56.4375V185.437H57.3606C59.9248 185.438 62.4656 184.95 64.8467 183.998L88.2279 174.642C96.609 171.276 105.821 170.561 114.621 172.594L169.135 185.091C170.668 185.504 172.045 186.36 173.095 187.55C174.145 188.741 174.822 190.214 175.041 191.787C175.05 191.922 175.066 192.056 175.089 192.19C175.166 193.116 175.081 194.049 174.839 194.947C174.55 195.988 174.056 196.961 173.387 197.81C172.719 198.658 171.888 199.366 170.944 199.891C169.999 200.416 168.96 200.748 167.886 200.868C166.813 200.989 165.726 200.894 164.689 200.591L125.731 193.012C124.688 192.824 123.612 193.053 122.738 193.652C121.863 194.25 121.259 195.169 121.056 196.209C120.854 197.249 121.069 198.328 121.656 199.21C122.242 200.093 123.153 200.709 124.191 200.926L162.891 208.44C164.936 208.989 167.07 209.129 169.17 208.853C171.27 208.577 173.294 207.89 175.129 206.831C176.963 205.773 178.571 204.363 179.86 202.683C181.15 201.003 182.096 199.085 182.644 197.039C182.927 195.985 183.102 194.904 183.168 193.814L231.474 165.91C232.697 165.204 234.084 164.832 235.497 164.83C236.909 164.828 238.297 165.198 239.521 165.901C240.746 166.604 241.764 167.617 242.474 168.837C243.185 170.058 243.562 171.444 243.568 172.856C243.567 174.306 243.184 175.73 242.456 176.985C241.728 178.239 240.682 179.279 239.424 179.999Z" fill="#7747E1"/>
<path d="M32.25 181.406C31.1808 181.406 30.1555 181.831 29.3995 182.587C28.6435 183.343 28.2188 184.368 28.2188 185.438V189.469C28.2188 190.538 28.6435 191.563 29.3995 192.319C30.1555 193.075 31.1808 193.5 32.25 193.5C33.3192 193.5 34.3445 193.075 35.1005 192.319C35.8565 191.563 36.2812 190.538 36.2812 189.469V185.438C36.2812 184.368 35.8565 183.343 35.1005 182.587C34.3445 181.831 33.3192 181.406 32.25 181.406Z" fill="#7747E1"/>
</svg>
