<svg width="256" height="256" viewBox="0 0 256 256" fill="none" xmlns="http://www.w3.org/2000/svg">
<g clip-path="url(#clip0_871_5279)">
<path d="M25.0835 58.845H210.917C222.009 58.845 231.001 67.8365 231.001 78.9285V203.762C231.001 214.853 222.009 223.845 210.917 223.845H25.0835C13.9915 223.845 5 214.853 5 203.762V78.9285C5 67.8365 13.9915 58.845 25.0835 58.845Z" fill="#8E6AE1"/>
<path d="M156.148 98.9466L174.367 80.7281L98.793 5.15356L5 98.9466H156.148Z" fill="#F2ECFF"/>
<path d="M205.5 194.845V230.845C205.5 241.89 196.546 250.845 185.5 250.845H25C13.9545 250.845 5 241.89 5 230.845V80.455V78.845C5 89.8905 13.9545 98.845 25 98.845H185.5C196.546 98.845 205.5 107.799 205.5 118.845V152.845V194.845Z" fill="#C8B2FB"/>
<path d="M251 136.345V174.845C251 185.89 242.046 194.845 231 194.845H140C128.955 194.845 120 185.89 120 174.845C120 163.799 128.955 154.845 140 154.845H231.5C242.27 154.845 251 146.114 251 135.345" fill="#8E6AE1"/>
<path d="M186.465 98.9466L204.684 80.7281L129.11 5.15356L35.3167 98.9466H186.465Z" fill="#F2ECFF"/>
<path d="M110.89 23.3726C115.553 28.0351 121.994 30.9191 129.109 30.9191C136.224 30.9191 142.665 28.0351 147.328 23.3726L129.109 5.15356L110.89 23.3726Z" fill="#DCCDFF"/>
<path d="M186.464 98.9465L204.683 80.7275L186.464 62.5085C181.802 67.171 178.918 73.6125 178.918 80.7275C178.918 87.843 181.801 94.284 186.464 98.9465Z" fill="#DCCDFF"/>
<path d="M129.663 98.9466C127.902 94.9376 125.391 91.1791 122.108 87.8966C107.947 73.7351 84.9865 73.7351 70.8255 87.8966C67.543 91.1791 65.0315 94.9376 63.2705 98.9466H129.663Z" fill="#DCCDFF"/>
<path d="M102.215 245.845C100.895 245.845 99.6101 246.379 98.6801 247.31C97.7501 248.24 97.2151 249.53 97.2151 250.845C97.2151 252.16 97.7501 253.45 98.6801 254.379C99.6101 255.309 100.9 255.845 102.215 255.845C103.53 255.845 104.82 255.31 105.75 254.379C106.68 253.45 107.215 252.16 107.215 250.845C107.215 249.53 106.68 248.24 105.75 247.31C104.82 246.379 103.53 245.845 102.215 245.845Z" fill="#7747E1"/>
<path d="M24 161.583V207.999C24 210.76 26.2385 212.999 29 212.999C31.7615 212.999 34 210.76 34 207.999V161.583C34 158.822 31.7615 156.583 29 156.583C26.2385 156.583 24 158.821 24 161.583Z" fill="#7747E1"/>
<path d="M32.535 137.215C31.605 136.285 30.315 135.75 29 135.75C27.685 135.75 26.395 136.285 25.465 137.215C24.535 138.145 24 139.43 24 140.75C24 142.065 24.535 143.355 25.465 144.285C26.395 145.215 27.685 145.75 29 145.75C30.315 145.75 31.605 145.215 32.535 144.285C33.465 143.354 34 142.065 34 140.75C34 139.435 33.465 138.145 32.535 137.215Z" fill="#7747E1"/>
<path d="M256 135.345C256 123.373 247.367 113.386 236 111.266V78.8449C236 65.0599 224.785 53.8449 211 53.8449H184.872L132.645 1.61793C130.693 -0.334069 127.527 -0.334069 125.574 1.61793L113.951 13.2404L102.328 1.61793C100.376 -0.334069 97.21 -0.334069 95.2575 1.61793L42.72 54.1554C42.183 53.9584 41.6055 53.8454 41 53.8454H25C11.215 53.8454 0 65.0604 0 78.8454C0 79.2099 0.012 79.5719 0.0275 79.9324C0.0095 80.1039 0 80.2784 0 80.4549V230.845C0 244.63 11.215 255.845 25 255.845H81.1665C83.928 255.845 86.1665 253.606 86.1665 250.845C86.1665 248.084 83.928 245.845 81.1665 245.845H25C16.729 245.845 10 239.116 10 230.845V98.8314C14.1815 101.977 19.3765 103.845 25 103.845L129.663 103.946H186.465C186.628 103.946 186.791 103.938 186.953 103.922C186.963 103.921 186.972 103.92 186.982 103.919C194.56 104.665 200.5 111.074 200.5 118.845V149.845H140C126.215 149.845 115 161.06 115 174.845C115 188.63 126.215 199.845 140 199.845H200.5V230.845C200.5 239.116 193.771 245.845 185.5 245.845H123.166C120.405 245.845 118.166 248.084 118.166 250.845C118.166 253.606 120.405 255.845 123.166 255.845H185.5C199.285 255.845 210.5 244.63 210.5 230.845V228.845H211C224.785 228.845 236 217.63 236 203.845V199.342C247.398 197.019 256 186.919 256 174.845V136.345C256 136.241 255.997 136.137 255.99 136.034C255.997 135.805 256 135.575 256 135.345ZM111.183 30.1519C116.519 33.9829 122.812 35.9049 129.109 35.9049C135.406 35.9049 141.7 33.9834 147.036 30.1519L179.686 62.8009C173.123 71.9419 172.178 83.8954 176.857 93.8449H132.719C130.831 90.3639 128.465 87.1819 125.644 84.3609C117.85 76.5674 107.488 72.2754 96.4665 72.2754C85.445 72.2754 75.083 76.5674 67.2895 84.3609C64.468 87.1819 62.101 90.3639 60.2135 93.8449H47.4885L111.183 30.1519ZM120.744 93.8449H72.1895C72.8695 93.0074 73.592 92.2014 74.3615 91.4324C80.266 85.5274 88.117 82.2759 96.467 82.2759C104.817 82.2759 112.668 85.5279 118.573 91.4324C119.342 92.2019 120.064 93.0079 120.744 93.8449ZM186.898 70.0134L197.613 80.7279L186.898 91.4424C182.943 84.8764 182.943 76.5799 186.898 70.0134ZM129.109 12.2249L139.824 22.9394C133.433 26.7889 125.403 26.8894 118.924 23.2449C119.149 22.8269 119.307 22.3839 119.405 21.9299L129.109 12.2249ZM25 63.8449H33.0305L11.499 85.3764C10.5395 83.4009 10 81.1849 10 78.8449C10 70.5739 16.729 63.8449 25 63.8449ZM18.607 92.4109L98.793 12.2249L106.88 20.3119L33.3465 93.8449H25C22.7145 93.8449 20.5475 93.3289 18.607 92.4109ZM196.219 96.2644L208.219 84.2639C210.171 82.3114 210.171 79.1454 208.219 77.1924L194.872 63.8454H211C219.271 63.8454 226 70.5744 226 78.8454V149.845H210.5V118.845C210.5 108.894 204.655 100.285 196.219 96.2644ZM211 218.845H210.5V199.845H226V203.845C226 212.116 219.271 218.845 211 218.845ZM246 174.845C246 183.116 239.271 189.845 231 189.845H140C131.729 189.845 125 183.116 125 174.845C125 166.574 131.729 159.845 140 159.845H231.5C236.921 159.845 241.938 158.075 246 155.082V174.845ZM236 149.126V121.563C241.798 123.461 246 128.92 246 135.345C246 141.769 241.798 147.228 236 149.126Z" fill="#7747E1"/>
<path d="M141 169.845C139.685 169.845 138.395 170.379 137.465 171.31C136.535 172.24 136 173.53 136 174.845C136 176.16 136.535 177.45 137.465 178.379C138.395 179.309 139.685 179.845 141 179.845C142.315 179.845 143.605 179.31 144.535 178.379C145.465 177.45 146 176.16 146 174.845C146 173.53 145.465 172.24 144.535 171.31C143.605 170.38 142.315 169.845 141 169.845Z" fill="#7747E1"/>
<path d="M134.562 80.275C135.842 80.275 137.122 79.7865 138.098 78.8105L146.788 70.1205C148.74 68.168 148.741 65.002 146.788 63.049C144.835 61.0975 141.669 61.097 139.717 63.049L131.027 71.739C129.074 73.6915 129.074 76.8575 131.027 78.8105C132.003 79.787 133.282 80.275 134.562 80.275Z" fill="#7747E1"/>
</g>
<defs>
<clipPath id="clip0_871_5279">
<rect width="256" height="256" fill="white"/>
</clipPath>
</defs>
</svg>
