<svg width="442" height="470" viewBox="0 0 442 470" fill="none" xmlns="http://www.w3.org/2000/svg">
<path d="M342.879 292.635C349.284 296.409 359.399 296.409 365.805 292.635C372.21 288.861 372.21 282.686 365.805 279.255C359.399 275.482 349.284 275.482 342.879 279.255C336.81 282.686 336.81 288.861 342.879 292.635ZM329.393 271.365C343.216 263.131 365.467 263.131 379.29 271.365C393.113 279.255 393.113 292.292 379.29 300.525C365.467 308.759 343.216 308.759 329.393 300.525C315.907 292.292 315.907 279.255 329.393 271.365Z" fill="#DFEEFB"/>
<path d="M384.685 266.562H371.873C371.199 265.533 369.851 264.161 368.165 263.132C361.085 259.015 350.296 259.015 342.542 262.445L335.124 255.241H323.661C324.336 254.898 325.01 254.555 325.347 254.212C341.53 244.949 367.49 244.949 383.336 254.212C386.371 255.927 388.731 257.986 390.417 260.044L384.685 266.562Z" fill="#7545DF"/>
<path d="M323.662 236.715V255.241H335.125V236.715H323.662Z" fill="#7545DF"/>
<path d="M342.542 243.577V262.445L335.124 255.241V236.715L342.542 243.577Z" fill="#7545DF"/>
<path d="M371.873 248.037V266.562L355.353 252.84L342.541 262.445V243.577L354.342 237.745C354.342 237.745 370.525 242.891 371.536 243.234C372.21 243.234 371.873 248.037 371.873 248.037Z" fill="#7545DF"/>
<path d="M384.685 247.694V266.562H371.873V248.037L384.685 247.694Z" fill="#7545DF"/>
<path d="M390.417 241.175V260.044L384.685 266.562V247.693L390.417 241.175Z" fill="#7545DF"/>
<path d="M384.685 247.694L371.873 248.037C371.199 246.664 369.851 245.635 368.165 244.606C361.085 240.489 350.296 240.146 342.542 243.577L335.124 236.716H323.661C324.336 236.372 325.01 236.029 325.347 235.686C341.53 226.08 367.49 226.08 383.336 235.686C386.371 237.402 388.731 239.117 390.417 241.175L384.685 247.694Z" fill="#8D60F1"/>
<path d="M338.833 245.978V263.131L328.044 260.387C328.044 260.387 328.718 250.438 329.055 250.095C329.055 249.752 338.833 245.978 338.833 245.978Z" fill="#5523C3"/>
<path d="M347.262 263.131V281.657L345.913 283.029L338.159 278.569C338.159 278.569 339.507 264.161 339.507 263.817C339.844 263.817 347.262 263.131 347.262 263.131Z" fill="#5523C3"/>
<path d="M332.427 258.328L338.833 264.504C333.439 268.963 334.113 275.139 340.856 279.255C342.879 280.285 344.902 280.971 347.262 281.657L340.182 288.861L346.25 294.693C338.833 294.007 331.416 291.606 325.347 288.175C311.861 280.285 309.838 267.591 319.616 258.328H332.427Z" fill="#7545DF"/>
<path d="M346.25 276.168V294.693L331.416 288.861L313.547 271.365V251.81L332.427 267.248L346.25 276.168Z" fill="#7545DF"/>
<path d="M332.427 239.803L338.833 245.978C333.439 250.438 334.113 256.613 340.856 260.73C342.879 261.759 344.902 262.445 347.262 263.131L340.182 270.336L346.25 276.168C338.833 275.139 331.416 273.08 325.347 269.65C311.861 261.416 309.838 249.066 319.616 239.803H332.427Z" fill="#8D60F1"/>
<path d="M346.25 288.861L352.319 282.343C358.05 282.686 363.782 281.657 368.165 279.256C372.548 276.511 374.233 273.08 373.559 269.65L387.719 269.307L393.114 263.475C398.171 272.051 394.799 281.657 383.336 288.175C374.908 292.978 364.119 295.38 352.993 295.38L346.25 288.861Z" fill="#7545DF"/>
<path d="M352.993 276.511V295.379L395.474 271.365V252.839L389.068 255.241L352.993 276.511Z" fill="#7545DF"/>
<path d="M346.25 270.336V288.861L352.993 295.38V276.511L346.25 270.336Z" fill="#5523C3"/>
<path d="M346.25 270.336L352.319 263.818C358.05 264.161 363.782 263.131 368.165 260.73C372.548 257.985 374.233 254.555 373.559 251.124L387.719 250.781L393.114 244.949C398.171 253.183 394.799 262.788 383.336 269.65C374.908 274.453 364.119 276.854 352.993 276.511L346.25 270.336Z" fill="#8D60F1"/>
<path d="M181.048 413.737L245.443 376C249.489 373.599 248.815 369.825 244.432 367.08L182.059 330.372C177.677 327.628 170.596 327.628 166.551 329.686L102.156 367.767C98.4469 369.825 98.7841 373.942 103.504 376.686L165.539 413.394C170.259 415.796 177.002 416.139 181.048 413.737Z" fill="#DFEEFB"/>
<path d="M80.9152 338.949V310.475H143.287L164.865 297.781C169.922 295.037 178.351 295.38 184.082 298.467L204.311 310.475H266.683V339.635C267.02 341.35 265.672 343.409 263.312 344.781L182.734 392.124C177.676 395.212 169.248 394.869 163.516 391.438L85.6353 345.467C82.2638 343.752 80.5781 341.007 80.9152 338.949Z" fill="#7545DF"/>
<path d="M173.968 295.723C177.339 296.066 181.048 296.752 184.082 298.467L204.311 310.474H266.683V339.635C267.02 341.35 265.672 343.409 263.312 344.781L182.734 392.124C180.374 393.496 177.002 394.183 173.968 394.183V295.723Z" fill="#7545DF"/>
<path d="M259.603 310.474H266.683V339.635C267.021 341.35 265.672 343.409 263.312 344.781L259.603 346.839V310.474Z" fill="#6097D0"/>
<path d="M181.385 392.81C177.34 394.525 170.934 394.525 166.214 392.467V359.533H181.385V392.81Z" fill="#8D60F1"/>
<path d="M182.733 363.307L263.312 315.62C268.369 312.876 267.694 307.73 261.963 304.299L184.082 258.672C178.35 255.241 169.922 254.898 164.865 257.985L84.2863 305.328C79.2291 308.073 79.9034 313.219 85.6349 316.65L163.516 362.277C169.247 365.708 177.676 366.051 182.733 363.307Z" fill="#DFEEFB"/>
<path d="M181.385 354.73L248.814 314.934C253.197 312.533 252.523 308.073 247.803 305.329L182.396 267.248C177.676 264.161 170.596 263.818 166.213 266.562L98.7836 306.015C94.7379 308.416 95.075 312.876 99.7951 315.621L165.202 354.044C169.922 356.788 177.339 357.131 181.385 354.73Z" fill="#8D60F1"/>
<path d="M110.584 346.153C110.584 348.555 111.933 350.956 113.955 351.985C115.641 353.015 116.99 352.328 116.99 350.27C116.99 347.869 115.641 345.467 113.955 344.438C111.933 343.409 110.584 344.095 110.584 346.153Z" fill="#DFEEFB"/>
<path d="M100.133 340.321C100.133 342.38 101.481 344.781 103.167 345.81C105.19 346.84 106.539 346.153 106.539 344.095C106.539 342.037 105.19 339.292 103.167 338.263C101.481 337.234 100.133 337.92 100.133 340.321Z" fill="#DFEEFB"/>
<path d="M89.6812 334.146C89.6812 336.204 91.0298 338.606 92.7155 339.635C94.7383 340.664 96.0869 339.978 96.0869 337.92C96.0869 335.861 94.7383 333.117 92.7155 332.088C91.0298 331.058 89.6812 331.745 89.6812 334.146Z" fill="#DFEEFB"/>
<path d="M80.9152 293.664V265.19H143.287L164.865 252.496C169.922 249.752 178.351 250.095 184.082 253.525L204.311 265.19H266.683V294.35C267.02 296.409 265.672 298.124 263.312 299.496L182.734 346.839C177.676 349.927 169.248 349.584 163.516 346.153L85.6353 300.525C82.2638 298.467 80.5781 296.066 80.9152 293.664Z" fill="#7545DF"/>
<path d="M173.968 250.781C177.339 250.781 181.048 251.467 184.082 253.526L204.311 265.19H266.683V294.35C267.02 296.409 265.672 298.124 263.312 299.496L182.734 346.839C180.374 348.212 177.002 348.898 173.968 348.898V250.781Z" fill="#7545DF"/>
<path d="M259.603 265.19H266.683V294.35C267.021 296.409 265.672 298.124 263.312 299.496L259.603 301.898V265.19Z" fill="#6097D0"/>
<path d="M181.385 347.526C177.34 349.241 170.934 349.241 166.214 347.526V314.248H181.385V347.526Z" fill="#8D60F1"/>
<path d="M182.733 318.022L263.312 270.679C268.369 267.591 267.694 262.445 261.963 259.358L184.082 213.387C178.35 209.956 169.922 209.613 164.865 212.701L84.2863 260.044C79.2291 262.788 79.9034 267.934 85.6349 271.365L163.516 316.993C169.247 320.423 177.676 320.766 182.733 318.022Z" fill="#DFEEFB"/>
<path d="M181.385 309.445L248.814 269.65C253.197 267.248 252.523 263.131 247.803 260.044L182.396 221.963C177.676 218.876 170.596 218.876 166.213 221.277L98.7836 260.73C94.7379 263.131 95.075 267.591 99.7951 270.336L165.202 308.759C169.922 311.504 177.339 311.847 181.385 309.445Z" fill="#8D60F1"/>
<path d="M110.584 301.211C110.584 303.27 111.933 305.671 113.955 306.701C115.641 307.73 116.99 307.044 116.99 304.985C116.99 302.927 115.641 300.182 113.955 299.153C111.933 298.124 110.584 298.81 110.584 301.211Z" fill="#DFEEFB"/>
<path d="M100.133 295.036C100.133 297.095 101.481 299.496 103.167 300.526C105.19 301.555 106.539 300.869 106.539 298.81C106.539 296.752 105.19 294.007 103.167 292.978C101.481 291.949 100.133 292.635 100.133 295.036Z" fill="#DFEEFB"/>
<path d="M89.6812 288.862C89.6812 290.92 91.0298 293.321 92.7155 294.351C94.7383 295.38 96.0869 294.694 96.0869 292.635C96.0869 290.577 94.7383 287.832 92.7155 286.803C91.0298 285.774 89.6812 286.803 89.6812 288.862Z" fill="#DFEEFB"/>
<path d="M80.9152 248.38V219.905H143.287L164.865 207.212C169.922 204.467 178.351 204.81 184.082 208.241L204.311 219.905H266.683V249.066C267.02 251.124 265.672 252.84 263.312 254.212L182.734 301.555C177.676 304.642 169.248 304.299 163.516 300.869L85.6353 255.241C82.2638 253.183 80.5781 250.781 80.9152 248.38Z" fill="#7545DF"/>
<path d="M173.968 205.496C177.339 205.496 181.048 206.526 184.082 208.241L204.311 219.905H266.683V249.066C267.02 251.124 265.672 252.839 263.312 254.212L182.734 301.555C180.374 302.927 177.002 303.613 173.968 303.613V205.496Z" fill="#7545DF"/>
<path d="M259.603 219.905H266.683V249.066C267.021 251.124 265.672 252.839 263.312 254.212L259.603 256.613V219.905Z" fill="#6097D0"/>
<path d="M181.385 302.241C177.34 304.299 170.934 303.956 166.214 302.241V268.964H181.385V302.241Z" fill="#8D60F1"/>
<path d="M182.733 272.737L263.312 225.394C268.369 222.307 267.694 217.161 261.963 214.073L184.082 168.102C178.35 164.672 169.922 164.328 164.865 167.416L84.2863 214.759C79.2291 217.504 79.9034 222.65 85.6349 226.08L163.516 271.708C169.247 275.139 177.676 275.482 182.733 272.737Z" fill="#DFEEFB"/>
<path d="M85.6345 220.591L163.516 266.219C169.247 269.65 177.676 269.993 182.733 267.248L263.311 219.562C264.66 219.219 265.334 218.19 266.008 217.504C267.694 220.248 266.683 223.336 263.311 225.394L182.733 272.737C177.676 275.482 169.247 275.139 163.516 271.708L85.6345 226.08C81.2516 223.336 79.903 219.905 81.5887 216.818C82.6002 218.19 83.9488 219.562 85.6345 220.591Z" fill="#FEFEFE"/>
<path d="M110.584 255.927C110.584 257.985 111.933 260.387 113.955 261.416C115.641 262.445 116.99 261.759 116.99 259.701C116.99 257.642 115.641 254.898 113.955 253.869C111.933 252.839 110.584 253.869 110.584 255.927Z" fill="#DFEEFB"/>
<path d="M100.133 249.752C100.133 251.81 101.481 254.212 103.167 255.241C105.19 256.613 106.539 255.584 106.539 253.526C106.539 251.467 105.19 248.723 103.167 247.694C101.481 246.664 100.133 247.694 100.133 249.752Z" fill="#DFEEFB"/>
<path d="M89.6812 243.577C89.6812 245.635 91.0298 248.036 92.7155 249.066C94.7383 250.438 96.0869 249.409 96.0869 247.35C96.0869 245.292 94.7383 242.547 92.7155 241.518C91.0298 240.489 89.6812 241.518 89.6812 243.577Z" fill="#DFEEFB"/>
<path d="M185.094 282.343C185.094 283.715 186.105 284.401 187.454 283.715C188.803 282.686 189.814 280.971 189.814 279.598C189.814 278.226 188.803 277.54 187.454 278.226C186.105 278.912 185.094 280.628 185.094 282.343Z" fill="#DFEEFB"/>
<path d="M192.174 278.226C192.174 279.599 193.186 280.285 194.534 279.599C195.883 278.569 196.894 276.854 196.894 275.482C196.894 274.11 195.883 273.423 194.534 274.11C193.186 274.796 192.174 276.511 192.174 278.226Z" fill="white"/>
<path d="M185.094 290.92C185.094 292.292 186.105 292.978 187.454 292.292C188.803 291.606 189.814 289.89 189.814 288.175C189.814 286.803 188.803 286.117 187.454 286.803C186.105 287.489 185.094 289.547 185.094 290.92Z" fill="#DFEEFB"/>
<path d="M192.174 286.803C192.174 288.175 193.186 288.861 194.534 288.175C195.883 287.489 196.894 285.774 196.894 284.058C196.894 282.686 195.883 282 194.534 282.686C193.186 283.372 192.174 285.431 192.174 286.803Z" fill="#DFEEFB"/>
<path d="M185.094 327.285C185.094 328.657 186.105 329.343 187.454 328.314C188.803 327.628 189.814 325.912 189.814 324.54C189.814 322.825 188.803 322.482 187.454 323.168C186.105 323.854 185.094 325.569 185.094 327.285Z" fill="#FEFEFE"/>
<path d="M192.174 323.168C192.174 324.54 193.186 325.226 194.534 324.197C195.883 323.511 196.894 321.796 196.894 320.424C196.894 318.708 195.883 318.365 194.534 319.051C193.186 319.737 192.174 321.453 192.174 323.168Z" fill="white"/>
<path d="M185.094 335.861C185.094 337.234 186.105 337.92 187.454 337.234C188.803 336.547 189.814 334.489 189.814 333.117C189.814 331.745 188.803 331.058 187.454 331.745C186.105 332.431 185.094 334.146 185.094 335.861Z" fill="#DFEEFB"/>
<path d="M192.174 331.745C192.174 333.117 193.186 333.803 194.534 333.117C195.883 332.431 196.894 330.372 196.894 329C196.894 327.628 195.883 326.942 194.534 327.628C193.186 328.314 192.174 330.029 192.174 331.745Z" fill="#DFEEFB"/>
<path d="M185.094 372.569C185.094 373.942 186.105 374.628 187.454 373.942C188.803 372.912 189.814 371.197 189.814 369.825C189.814 368.453 188.803 367.766 187.454 368.453C186.105 369.139 185.094 370.854 185.094 372.569Z" fill="#FEFEFE"/>
<path d="M192.174 368.453C192.174 369.825 193.186 370.511 194.534 369.825C195.883 368.796 196.894 367.08 196.894 365.708C196.894 364.336 195.883 363.65 194.534 364.336C193.186 365.022 192.174 366.737 192.174 368.453Z" fill="white"/>
<path d="M185.094 381.146C185.094 382.518 186.105 383.204 187.454 382.518C188.803 381.832 189.814 379.774 189.814 378.401C189.814 377.029 188.803 376.343 187.454 377.029C186.105 377.715 185.094 379.774 185.094 381.146Z" fill="#FEFEFE"/>
<path d="M192.174 377.029C192.174 378.402 193.186 379.088 194.534 378.402C195.883 377.715 196.894 375.657 196.894 374.285C196.894 372.912 195.883 372.226 194.534 372.912C193.186 373.599 192.174 375.657 192.174 377.029Z" fill="#DFEEFB"/>
<path d="M132.162 241.861L211.054 195.204C212.066 194.861 212.066 193.832 210.717 193.146C209.706 192.46 208.357 192.46 207.346 193.146L128.116 239.46C127.105 240.146 127.442 240.832 128.453 241.518C129.465 242.204 131.151 242.204 132.162 241.861Z" fill="#2F3E74"/>
<path d="M441.662 352.672L392.102 323.511C382.324 317.679 372.884 316.65 366.141 320.766C359.061 324.883 355.352 333.46 355.352 345.124V348.898C355.69 348.898 356.027 349.241 356.364 349.584V345.124C356.364 334.146 360.073 325.912 366.478 321.796C373.221 318.022 381.987 319.051 391.427 324.54L440.988 353.701C441.325 354.044 441.662 353.701 441.662 353.701C441.999 353.358 441.662 353.015 441.662 352.672Z" fill="#DFEEFB"/>
<path d="M287.25 318.022V204.467C287.25 181.825 271.741 154.037 252.186 142.715C242.746 137.226 233.98 136.197 227.237 140.314C220.494 144.088 216.786 152.664 216.786 163.642V171.533C217.123 171.876 217.46 172.219 217.797 172.562V163.642C217.797 153.007 221.169 145.117 227.575 141.343C233.98 137.569 242.746 138.256 251.849 143.745C270.729 154.723 286.238 182.168 286.238 204.467V318.022C286.238 336.548 297.027 358.847 311.861 372.226C311.861 371.883 311.861 371.197 311.861 370.854C297.701 357.475 287.25 336.204 287.25 318.022Z" fill="#DFEEFB"/>
<path d="M216.785 174.963C214.763 173.248 206.671 165.701 194.197 163.985C180.711 161.584 174.979 178.051 174.979 178.051C174.979 178.051 173.293 186.628 173.293 191.774C173.293 196.92 173.631 215.102 173.631 215.102L217.46 189.372C217.797 189.372 217.797 189.372 217.797 189.029V175.993C217.46 175.65 217.123 175.307 216.785 174.963Z" fill="#8D60F1"/>
<path d="M185.768 164.672L227.237 140.314L226.9 141C233.306 136.54 243.083 136.197 255.895 145.803C281.518 165.015 284.552 191.774 285.901 196.577C287.25 201.723 286.912 233.285 286.912 233.285C286.912 233.285 286.912 309.445 286.912 318.365C286.912 327.285 289.61 337.234 294.33 348.212C299.387 358.847 311.861 371.883 311.861 371.883V387.321C309.838 404.131 302.758 408.248 292.644 408.934C284.215 409.964 275.112 403.788 268.032 396.927C268.032 397.27 268.369 397.27 268.369 397.27V413.051C266.346 429.861 259.266 433.635 248.815 434.664C238.363 435.693 227.237 425.745 219.483 417.511C211.729 409.277 205.323 396.927 201.951 385.606C198.243 373.942 199.591 359.533 199.591 359.533C199.591 359.533 199.254 276.168 199.254 259.701C199.254 243.234 198.58 245.978 193.523 229.511C188.128 213.044 173.968 201.38 173.968 201.38L140.253 191.088L185.768 164.672Z" fill="#DFEEFB"/>
<path d="M257.917 433.292C258.592 432.263 265.672 427.46 267.694 418.54C268.706 413.394 268.706 406.19 268.706 406.19C268.706 406.19 268.706 401.73 268.369 397.956C268.369 397.27 268.369 396.927 268.369 396.241V396.584C268.369 395.555 268.369 394.869 268.369 394.183C268.032 390.409 271.066 381.832 271.066 381.832C271.066 381.832 275.112 370.511 287.249 370.168C298.038 369.825 309.164 377.715 311.524 379.431V374.285C311.861 374.285 311.861 374.628 312.198 374.628C312.198 373.942 312.198 373.256 312.198 372.569L311.861 372.226C311.861 371.883 311.861 371.197 311.861 370.854L312.198 371.197C311.861 370.168 311.861 369.482 311.861 368.796C311.861 364.679 314.558 356.445 314.558 356.445C314.558 356.445 318.604 345.124 330.741 344.781C341.53 344.095 352.656 351.986 355.353 354.044V348.898C355.69 348.898 356.027 349.241 356.364 349.584V358.504C356.364 369.139 352.656 377.372 346.25 381.489H345.913V381.832L301.409 407.562L257.917 433.292Z" fill="#8D60F1"/>
<path d="M322.312 346.496C322.312 346.496 322.649 346.153 323.323 346.153C323.66 345.81 323.66 345.81 323.997 345.81L366.141 320.766C366.141 320.766 373.895 316.65 382.998 320.423C392.438 323.854 441.662 353.701 441.662 353.701L397.833 379.431H397.496L354.004 404.817C354.004 404.817 329.729 389.379 312.534 379.431L311.523 378.744C304.443 374.628 299.049 371.54 297.363 371.197C286.911 368.452 279.494 371.883 277.471 372.912L322.312 346.496Z" fill="#DFEEFB"/>
<path d="M277.472 372.912L277.134 373.256C277.134 373.256 277.134 372.912 277.472 372.912Z" fill="#DFEEFB"/>
<path d="M172.956 200.693C171.27 198.635 162.842 191.431 150.704 189.372C136.881 187.314 131.15 203.781 131.15 203.781C131.15 203.781 129.801 212.358 129.801 217.16C129.801 222.306 130.138 240.489 130.138 240.489L173.968 215.102C173.968 214.759 174.305 214.759 174.305 214.416V201.379C173.968 201.036 173.63 201.036 172.956 200.693Z" fill="#8D60F1"/>
<path d="M249.489 435.35C244.432 435.35 239.037 433.635 233.643 430.204C214.425 419.226 198.917 391.438 198.917 369.139V255.584C198.917 233.285 183.408 206.182 164.528 194.861C155.425 189.372 146.659 188.686 140.253 192.46C133.847 196.234 130.476 204.124 130.476 214.759V240.146C130.476 240.489 130.139 240.832 129.802 240.832C129.464 240.832 129.464 240.489 129.464 240.146V214.759C129.464 203.781 133.173 195.547 139.916 191.431C146.659 187.314 155.425 188.343 164.865 193.832C184.082 205.153 199.928 232.942 199.928 255.584V369.139C199.928 391.095 215.437 418.197 234.317 429.518C243.083 434.664 251.849 435.693 257.917 431.92C264.323 428.146 268.032 420.255 268.032 409.62V396.241C268.032 384.92 271.74 376 278.821 372.226C285.564 368.109 295.004 368.796 304.781 374.628L354.004 403.788C354.342 404.131 354.679 404.474 354.342 404.817C354.342 404.817 354.004 405.161 353.667 404.817L304.107 375.657C294.666 370.168 285.901 369.139 279.158 372.912C272.752 377.029 269.043 385.263 269.043 396.241V409.62C269.043 420.598 265.335 428.832 258.592 432.949C255.895 434.321 252.86 435.35 249.489 435.35Z" fill="#3F6AA9"/>
<path d="M240.723 175.306L245.78 172.219C246.117 172.219 246.117 171.876 245.78 171.533L241.734 166.73C241.397 166.387 240.723 166.387 240.386 166.387L235.328 169.474C234.991 169.817 234.991 170.16 235.328 170.504L239.374 174.963C239.711 175.306 240.386 175.65 240.723 175.306Z" fill="#6097D0"/>
<path d="M229.26 182.168L234.654 179.08C234.992 178.737 234.992 178.394 234.654 178.051L230.271 173.248C229.934 172.905 229.597 172.905 229.26 173.248L223.866 176.336C223.529 176.336 223.529 176.679 223.866 177.022L228.249 181.825C228.586 182.168 228.923 182.168 229.26 182.168Z" fill="#3F6AA9"/>
<path d="M218.134 188.686L223.528 185.598C223.866 185.255 223.866 184.912 223.528 184.569L219.145 180.109C218.808 179.766 218.134 179.423 218.134 179.766L212.74 182.854C212.403 182.854 212.403 183.54 212.74 183.883L217.123 188.343C217.46 188.686 217.797 188.686 218.134 188.686Z" fill="#FEFEFE"/>
<path d="M243.421 281.314L250.501 277.197C251.175 276.854 251.849 275.825 251.849 274.796C251.849 273.766 251.175 273.423 250.501 273.766L243.421 278.226C242.746 278.569 242.072 279.599 242.072 280.628C242.072 281.314 242.746 282 243.421 281.314Z" fill="#6097D0"/>
<path d="M225.889 291.606L236.677 285.431C237.352 285.088 238.026 283.715 238.026 283.029C238.026 282 237.352 281.657 236.677 282L225.889 288.175C225.214 288.861 224.54 289.891 224.54 290.577C224.54 291.606 225.214 291.949 225.889 291.606Z" fill="#6097D0"/>
<path d="M246.791 321.109L254.209 316.65C254.883 316.307 255.557 315.277 255.557 314.248C255.557 313.562 254.883 313.219 254.209 313.562L246.791 317.679C246.117 318.022 245.78 319.051 245.78 320.08C245.78 321.109 246.117 321.452 246.791 321.109Z" fill="#6097D0"/>
<path d="M231.283 330.372L242.071 323.854C242.746 323.511 243.42 322.482 243.42 321.453C243.42 320.423 242.746 320.08 242.071 320.423L231.283 326.942C230.608 327.285 230.271 328.314 230.271 329.343C230.271 330.029 230.608 330.715 231.283 330.372Z" fill="#6097D0"/>
<path d="M263.312 276.511L268.032 274.109C268.707 273.423 269.044 272.394 269.044 271.708C269.044 270.679 268.707 270.336 268.032 270.679L263.312 273.423C262.638 273.766 262.301 274.795 261.964 275.825C261.964 276.511 262.638 276.854 263.312 276.511Z" fill="#6097D0"/>
<path d="M247.803 292.635L261.626 284.402C262.3 284.059 262.975 283.029 262.975 282C262.975 281.314 262.3 280.628 261.626 281.314L247.803 289.548C247.129 289.891 246.454 290.92 246.454 291.949C246.454 292.635 247.129 292.978 247.803 292.635Z" fill="#6097D0"/>
<path d="M256.906 301.212L261.626 298.467C262.301 298.124 262.638 297.095 262.638 296.066C262.638 295.38 262.301 294.694 261.626 295.38L256.906 297.781C256.232 298.467 255.558 299.496 255.558 300.183C255.558 301.212 256.232 301.555 256.906 301.212Z" fill="#6097D0"/>
<path d="M225.889 347.183L238.026 339.978C239.037 339.635 239.375 338.606 239.375 337.92C239.375 336.891 239.037 336.548 238.363 336.891L225.889 344.095C225.214 344.438 224.877 345.467 224.877 346.496C224.877 347.183 225.214 347.869 225.889 347.183Z" fill="#6097D0"/>
<path d="M258.255 314.248L261.289 312.533C261.963 312.19 262.638 311.161 262.638 310.131C262.638 309.445 261.963 308.759 261.289 309.445L258.255 311.161C257.58 311.504 257.243 312.533 257.243 313.562C257.243 314.248 257.58 314.934 258.255 314.248Z" fill="#6097D0"/>
<path d="M257.243 329L260.952 326.599C261.626 326.256 262.301 325.226 262.301 324.197C262.301 323.511 261.626 322.825 260.952 323.511L257.58 325.569C256.906 325.913 256.232 326.942 256.232 327.971C256.232 329 256.569 329.343 257.243 329Z" fill="#6097D0"/>
<path d="M243.083 337.233L252.86 331.401C253.535 331.058 254.209 330.029 254.209 329C254.209 328.314 253.535 327.971 252.86 328.314L243.42 333.803C242.746 334.146 242.072 335.175 242.072 336.204C242.072 337.233 242.409 337.577 243.083 337.233Z" fill="#6097D0"/>
<path d="M253.872 337.92L260.952 333.803C261.626 333.46 262.301 332.431 262.301 331.401C262.301 330.372 261.626 330.029 260.952 330.372L254.209 334.489C253.535 334.832 252.86 335.861 252.86 336.891C252.86 337.92 253.198 338.263 253.872 337.92Z" fill="#6097D0"/>
<path d="M240.049 311.161L252.186 303.956C252.861 303.613 253.198 302.584 253.198 301.555C253.535 300.869 252.861 300.526 252.186 300.869L240.049 308.073C239.375 308.416 238.7 309.445 238.7 310.475C238.7 311.161 239.375 311.504 240.049 311.161Z" fill="#6097D0"/>
<path d="M240.386 303.956L261.626 291.606C262.3 291.263 262.975 290.233 262.975 289.204C262.975 288.175 262.3 287.832 261.626 288.175L240.386 300.868C239.711 301.211 239.037 302.241 239.037 303.27C239.037 303.956 239.711 304.299 240.386 303.956Z" fill="#6097D0"/>
<path d="M249.152 312.876L261.289 305.672C261.963 305.329 262.638 304.299 262.638 303.27C262.638 302.241 261.963 301.898 261.289 302.241L249.152 309.445C248.477 309.788 247.803 310.818 247.803 311.847C247.803 312.876 248.477 313.219 249.152 312.876Z" fill="#6097D0"/>
<path d="M230.609 316.649L234.992 314.248C235.666 313.562 236.34 312.533 236.34 311.847C236.34 310.817 235.666 310.474 234.992 310.817L230.609 313.219C229.935 313.905 229.597 314.934 229.597 315.62C229.597 316.649 229.935 316.993 230.609 316.649Z" fill="#6097D0"/>
<path d="M246.455 328.314L261.289 319.737C261.963 319.394 262.301 318.365 262.301 317.336C262.301 316.306 261.963 315.963 261.289 316.306L246.455 324.883C245.78 325.226 245.443 326.598 245.106 327.285C245.106 328.314 245.78 328.657 246.455 328.314Z" fill="#6097D0"/>
<path d="M257.244 273.08L268.032 266.905C268.707 266.562 269.381 265.533 269.381 264.504C269.381 263.474 268.707 263.131 268.032 263.474L257.244 269.993C256.569 270.336 255.895 271.365 255.895 272.394C255.895 273.08 256.569 273.766 257.244 273.08Z" fill="#6097D0"/>
<path d="M254.546 344.438L267.02 337.234C267.694 336.891 268.031 335.861 268.031 334.832C268.031 333.803 267.694 333.46 267.02 333.803L254.546 341.35C253.871 341.693 253.197 342.723 253.197 343.752C253.197 344.438 253.871 345.124 254.546 344.438Z" fill="#6097D0"/>
<path d="M385.696 351.642L391.091 348.555C391.428 348.212 391.428 347.869 391.091 347.869L386.033 344.781C385.696 344.438 385.022 344.438 384.685 344.781L379.29 347.869C379.29 347.869 379.29 348.212 379.628 348.555L384.685 351.642C385.022 351.642 385.359 351.642 385.696 351.642Z" fill="#8D60F1"/>
<path d="M374.57 358.161L379.965 355.073C380.302 355.073 379.965 354.73 379.627 354.387L374.57 351.299C374.233 351.299 373.896 351.299 373.559 351.299L368.164 354.387C367.827 354.73 367.827 355.073 368.164 355.073L373.222 358.161C373.559 358.504 374.233 358.504 374.57 358.161Z" fill="#8D60F1"/>
<path d="M363.445 364.679L368.502 361.591C368.839 361.591 368.839 361.248 368.502 360.905L363.445 358.16C363.108 357.817 362.434 357.817 362.096 357.817L357.039 360.905C356.702 361.248 356.702 361.591 357.039 361.591L362.096 364.679C362.434 365.022 363.108 365.022 363.445 364.679Z" fill="#8D60F1"/>
<path d="M352.319 371.54L357.376 368.453C357.713 368.11 357.713 367.767 357.376 367.423L352.319 364.679C351.982 364.336 351.307 364.336 350.97 364.679L345.913 367.767C345.576 367.767 345.576 368.11 345.913 368.453L350.97 371.197C351.307 371.54 351.982 371.54 352.319 371.54Z" fill="#8D60F1"/>
<path d="M231.619 256.27C231.619 256.27 237.688 253.182 241.397 257.642C245.105 262.445 250.5 273.08 250.5 280.628C250.837 287.832 244.768 287.489 241.397 285.774C237.688 284.058 227.574 268.963 226.899 265.876C226.562 262.788 227.911 259.015 228.585 258.328C229.597 257.299 231.619 256.27 231.619 256.27Z" fill="#3C207A"/>
<path d="M230.272 254.555L229.934 261.073C229.934 262.445 230.609 263.818 231.957 264.504C232.969 264.847 234.317 265.533 236.34 265.19C241.06 264.504 241.397 263.131 241.735 256.613C242.072 250.438 230.272 254.555 230.272 254.555Z" fill="#DFEEFB"/>
<path d="M253.872 243.92C253.872 243.92 259.603 240.832 263.312 245.635C267.02 250.095 272.415 261.073 272.752 268.277C272.752 275.825 267.02 275.139 263.312 273.423C259.94 271.708 249.826 256.613 249.152 253.526C248.477 250.781 249.826 246.664 250.837 245.978C251.849 245.292 253.872 243.92 253.872 243.92Z" fill="#3C207A"/>
<path d="M252.523 242.547L252.186 248.723C252.186 250.095 252.86 251.467 253.872 252.153C254.883 252.839 256.569 253.182 258.592 252.839C262.975 252.153 263.649 250.781 263.986 244.606C263.986 238.088 252.523 242.547 252.523 242.547Z" fill="#DFEEFB"/>
<path d="M198.579 125.905C200.265 96.4013 229.934 130.022 229.934 130.022L250.499 150.263L268.705 170.846C272.077 174.963 273.763 180.109 273.088 185.598L265.671 242.89C265.334 245.635 262.974 247.693 260.277 247.693C259.602 247.693 258.591 247.693 257.58 247.35C250.837 246.321 251.511 240.146 251.511 240.146L252.86 186.628L214.425 162.956C214.425 162.956 196.893 155.409 198.579 125.905Z" fill="#2C1C50"/>
<path d="M176.665 136.883C178.351 107.38 208.019 141.343 208.019 141.343L228.248 161.584L246.454 182.168C250.163 185.942 251.849 191.431 251.174 196.92L243.757 254.212C243.42 256.956 241.06 259.015 238.026 259.015C237.351 259.015 236.34 259.015 235.328 258.672C228.923 257.642 229.26 251.467 229.26 251.467L230.608 197.606L192.174 174.277C192.174 174.277 174.642 166.73 176.665 136.883Z" fill="#2C1C50"/>
<path d="M194.196 42.197C171.607 51.8029 171.945 65.1824 171.945 65.1824C171.945 65.1824 176.328 114.927 174.979 147.861C174.305 161.927 247.129 162.956 236.34 125.905C223.528 82.3357 228.248 47 222.517 41.854C216.448 36.3649 199.928 39.7956 194.196 42.197Z" fill="#362067"/>
<path d="M186.779 54.2044C188.127 59.0073 193.859 61.4088 200.265 59.6934C206.333 57.9781 210.379 52.8321 209.368 48.3723C208.019 43.5694 202.287 41.1679 195.882 42.8832C189.813 44.5986 185.767 49.4015 186.779 54.2044Z" fill="#F8C7B9"/>
<path d="M199.928 43.5692C201.277 43.5692 202.962 43.5692 203.974 44.2553C206.334 45.2845 207.683 46.6568 208.357 48.7152C208.694 50.4305 208.357 52.4889 206.671 54.5473C204.985 56.2626 202.625 57.9779 199.928 58.6641C197.231 59.3502 194.197 59.3502 192.174 58.321C189.814 57.2918 188.465 55.9195 187.791 53.8611C187.454 52.1458 188.128 50.0874 189.477 48.029C191.162 45.9706 193.522 44.5984 196.22 43.9122C197.568 43.5692 198.58 43.5692 199.928 43.5692ZM196.22 61.4086C197.568 61.4086 199.254 61.0655 200.602 60.7225C203.637 60.0363 206.671 57.9779 208.357 55.9195C210.38 53.5181 211.054 50.7736 210.38 48.029C209.705 45.2845 207.683 43.2261 204.985 42.1969C202.288 41.1677 198.917 40.8247 195.545 41.8538C192.511 42.54 189.814 44.2553 187.791 46.6568C185.768 49.0582 185.094 51.8028 185.768 54.5473C186.442 56.9487 188.465 59.0071 191.162 60.3794C192.848 61.0655 194.534 61.4086 196.22 61.4086Z" fill="#FEFEFE"/>
<path d="M202.962 41.1679C202.962 41.1679 202.962 42.1971 203.3 49.4015C203.3 51.4599 195.545 53.8613 193.522 51.8029C191.499 49.7446 192.174 47.3431 191.837 39.7957C191.499 31.9052 202.962 41.1679 202.962 41.1679Z" fill="#F8C7B9"/>
<path d="M191.837 39.7957C191.837 39.7957 193.86 47 203.3 49.7445V43.2263L191.837 39.7957Z" fill="#EBA299"/>
<path d="M185.768 21.6133C183.408 30.8761 189.139 40.4819 198.242 42.8834C207.345 45.2849 216.785 39.7958 219.482 30.19C221.843 20.9272 216.111 11.3214 207.008 8.91991C197.568 6.51845 188.128 12.0075 185.768 21.6133Z" fill="#F8C7B9"/>
<path d="M198.58 26.4161C198.58 26.4161 208.02 30.5329 214.763 30.5329C221.169 30.876 219.82 25.0438 219.82 25.0438L200.266 22.2993L198.58 26.4161Z" fill="#EBA299"/>
<path d="M216.785 27.4453C216.785 27.4453 208.356 24.0146 201.276 25.3869C199.253 25.73 197.905 26.7592 196.556 28.1314C196.219 28.4745 195.882 29.1606 195.208 29.1606C194.196 29.5037 191.836 24.0146 189.476 24.0146C187.116 23.6716 185.43 25.3869 187.453 28.8176C189.476 32.2482 188.802 36.0219 187.79 36.7081C186.779 37.0511 176.665 29.1606 185.768 11.3212C194.533 -6.51821 217.122 3.08763 220.494 6.86135C220.494 6.86135 224.202 9.94894 227.237 7.20442C227.237 7.20442 230.608 32.5913 216.785 27.4453Z" fill="#492E83"/>
<path d="M184.757 101.547V114.927C184.757 116.299 185.431 117.672 186.442 119.044L213.414 144.088L210.38 148.891L174.642 122.474C172.956 121.102 171.945 119.387 171.608 117.329L169.248 93.657L184.757 101.547Z" fill="#F8C7B9"/>
<path d="M173.968 58.6643C173.968 58.6643 165.876 71.0147 162.842 104.292C162.842 104.292 176.665 108.752 184.756 106.007C192.511 103.606 173.968 58.6643 173.968 58.6643Z" fill="#362067"/>
<path d="M186.105 74.4453C186.105 74.4453 189.477 91.9416 189.477 100.175C189.477 102.234 188.128 104.292 186.105 105.321V74.4453Z" fill="#492E83"/>
<path d="M193.185 161.241L199.254 160.555L237.689 137.913C239.038 137.226 241.06 137.226 242.746 138.256L270.055 154.037L273.427 153.694V157.467C273.427 157.81 273.427 158.153 272.752 158.496L228.923 184.226C227.575 184.913 225.552 184.913 224.203 184.226L194.197 166.73C193.523 166.044 193.185 165.701 193.185 165.015V161.241Z" fill="#8D60F1"/>
<path d="M222.18 147.175L224.877 145.46H255.221L270.055 154.037L273.427 153.694V157.467C273.427 157.81 273.427 158.153 272.752 158.496L228.923 184.226C228.249 184.57 227.575 184.913 226.563 184.913L222.18 147.175Z" fill="#8D60F1"/>
<path d="M272.078 154.036L273.427 153.693V157.467C273.427 157.81 273.427 158.153 272.752 158.496L272.078 159.182V154.036Z" fill="#6097D0"/>
<path d="M228.586 184.57C227.237 184.913 225.551 184.913 224.54 184.226V178.051H228.586V184.57Z" fill="#FEFEFE"/>
<path d="M228.923 180.796L272.752 155.066C274.1 154.38 273.763 153.007 272.415 152.321L242.746 134.825C241.06 133.796 239.037 133.796 237.689 134.482L193.859 160.212C192.848 160.898 192.848 162.27 194.197 162.956L224.203 180.453C225.551 181.482 227.574 181.482 228.923 180.796Z" fill="#FEFEFE"/>
<path d="M229.597 176.679L266.009 155.409C267.02 154.723 267.02 153.693 265.672 153.007L249.826 144.088C248.815 143.402 246.792 143.058 245.78 143.745L209.368 165.015C208.357 165.701 208.694 166.73 209.705 167.416L225.551 176.679C226.9 177.365 228.586 177.365 229.597 176.679Z" fill="#DFEEFB"/>
<path d="M241.06 133.796L241.397 136.883C241.734 139.628 241.734 142.029 241.06 144.774L240.723 147.518C240.386 148.891 239.037 150.263 237.688 150.606C236.34 150.606 235.328 149.92 235.328 148.547L234.317 142.029C234.317 142.029 232.968 144.431 231.957 144.431C231.283 144.431 232.968 137.569 234.654 134.139C236.677 130.365 241.06 133.796 241.06 133.796Z" fill="#F8C7B9"/>
<path d="M226.226 85.0802L230.609 94.3429C231.957 96.7444 232.631 99.1458 232.631 101.547L234.654 134.139L241.06 133.795L243.757 97.4305C243.757 96.4013 243.757 95.3721 243.42 93.9999L240.386 75.8174L226.226 85.0802Z" fill="#F8C7B9"/>
<path d="M230.608 183.197L233.98 178.394L272.752 155.409C273.763 154.723 274.775 153.007 274.775 151.292V119.044L277.135 115.956L275.112 114.927C274.775 114.584 274.1 114.584 273.426 114.927L229.934 140.657C228.586 141.343 227.574 143.401 227.574 145.117V180.109C227.574 181.139 227.911 181.825 228.586 181.825L230.608 183.197Z" fill="#5523C3"/>
<path d="M257.243 164.672L259.94 162.956L274.775 136.54V119.044L277.135 115.956L275.112 114.927C274.775 114.584 274.1 114.584 273.426 114.927L229.934 140.657C229.26 141 228.586 141.686 228.248 142.715L257.243 164.672Z" fill="#5523C3"/>
<path d="M276.123 117.328L277.135 115.956L275.112 114.927C274.775 114.584 274.1 114.584 273.426 114.927L272.752 115.613L276.123 117.328Z" fill="#6097D0"/>
<path d="M229.26 141C228.586 141.686 227.574 143.401 227.574 144.774L231.957 147.175L233.98 143.745L229.26 141Z" fill="#612BD8"/>
<path d="M231.957 142.029L275.449 116.299C276.798 115.613 277.809 116.299 277.809 118.015V153.007C277.809 154.723 276.798 156.438 275.786 157.124L231.957 183.197C230.609 183.883 229.597 182.854 229.597 181.482V146.489C229.597 144.774 230.609 142.715 231.957 142.029Z" fill="#8D60F1"/>
<path d="M210.379 148.891L211.054 150.263C212.065 151.978 213.076 153.35 214.762 154.38L219.145 157.124C220.494 157.81 222.179 158.153 223.528 157.124C225.214 156.095 225.214 154.037 224.202 153.007L219.482 148.204C219.482 148.204 222.179 150.263 222.854 149.577C223.191 148.891 220.157 146.146 218.134 145.803C215.774 145.803 213.414 144.088 213.414 144.088L210.379 148.891Z" fill="#F8C7B9"/>
<path d="M221.843 41.854C221.843 41.854 238.363 60.0365 245.106 76.8467C245.106 76.8467 239.712 87.4817 225.552 91.5985C211.729 95.7153 221.843 41.854 221.843 41.854Z" fill="#362067"/>
<path d="M228.923 90.5694L226.226 63.8103L232.294 88.8541C231.283 89.1971 229.934 89.8833 228.923 90.5694Z" fill="#492E83"/>
<path d="M209.369 38.0803L213.752 36.708C213.752 36.708 211.729 40.1387 208.695 41.1679C205.66 41.854 204.986 39.1095 204.986 39.1095L209.369 38.0803Z" fill="#FEFEFE"/>
<path d="M4.38278 214.759L57.6521 183.54C58.6636 182.854 59.675 182.854 60.3493 183.197L65.7437 186.285C65.7437 186.285 63.3836 187.314 62.035 187.657V227.11C62.035 230.197 60.0121 233.971 57.6521 235.343L6.74281 265.19V269.993L1.6856 266.905C0.674155 266.219 0.337008 265.19 0.337008 263.475V222.993C0.337008 219.905 2.02275 216.132 4.38278 214.759Z" fill="#7545DF"/>
<path d="M9.77726 269.65L63.0465 238.431C65.4065 237.059 67.0923 233.285 67.0923 230.197V190.059C67.0923 186.628 65.4065 185.256 63.0465 186.628L9.77726 217.847C7.41723 219.219 5.39435 222.993 5.39435 226.08V266.562C5.39435 269.65 7.41723 271.022 9.77726 269.65Z" fill="#8D60F1"/>
<path d="M45.1773 224.708C45.1773 227.11 46.5259 227.796 48.5487 226.767C50.5716 225.394 52.2573 222.65 52.2573 220.248C52.2573 218.19 50.5716 217.161 48.5487 218.19C46.5259 219.562 45.1773 222.307 45.1773 224.708Z" fill="#FEFEFE"/>
<path d="M34.0518 230.883C34.0518 233.285 35.7375 234.314 37.7604 232.942C39.7833 231.912 41.469 229.168 41.469 226.766C41.469 224.365 39.7833 223.679 37.7604 224.708C35.7375 225.737 34.0518 228.825 34.0518 230.883Z" fill="#FEFEFE"/>
<path d="M23.2629 237.402C23.2629 239.803 24.9487 240.489 26.9716 239.46C28.9944 238.431 30.343 235.343 30.343 233.285C30.343 230.883 28.9944 229.854 26.9716 231.226C24.9487 232.256 23.2629 235 23.2629 237.402Z" fill="#FEFEFE"/>
<path d="M34.7261 164.328L87.9954 133.109C89.0068 132.423 90.0183 132.423 90.6926 132.766L95.7498 135.854C95.7498 135.854 93.3897 136.54 92.3783 137.226V176.336C92.3783 179.766 90.3554 183.54 87.9954 184.912L37.0862 214.759V219.219L32.029 216.131C31.0175 215.788 30.3432 214.416 30.3432 212.701V172.562C30.3432 169.474 32.3661 165.701 34.7261 164.328Z" fill="#7545DF"/>
<path d="M40.1205 219.219L93.0526 188C95.4127 186.628 97.4355 182.854 97.4355 179.423V139.285C97.4355 136.197 95.4127 134.825 93.0526 136.197L40.1205 167.416C37.7605 168.788 35.7376 172.562 35.7376 175.65V215.788C35.7376 218.876 37.7605 220.591 40.1205 219.219Z" fill="#8D60F1"/>
<path d="M75.1836 173.934C75.1836 176.336 76.8693 177.365 78.8922 175.993C80.9151 174.964 82.6008 172.219 82.6008 169.818C82.6008 167.416 80.9151 166.387 78.8922 167.759C76.8693 168.788 75.1836 171.533 75.1836 173.934Z" fill="#FEFEFE"/>
<path d="M64.3948 180.453C64.3948 182.854 66.0805 183.54 68.1034 182.511C70.1263 181.482 71.4749 178.394 71.4749 176.336C71.4749 173.935 70.1263 172.905 68.1034 173.935C66.0805 175.307 64.3948 178.051 64.3948 180.453Z" fill="#FEFEFE"/>
<path d="M53.6066 186.628C53.6066 189.029 55.2924 190.058 57.3153 189.029C59.001 187.657 60.6868 184.912 60.6868 182.511C60.6868 180.11 59.001 179.423 57.3153 180.453C55.2924 181.482 53.6066 184.569 53.6066 186.628Z" fill="#FEFEFE"/>
<path d="M143.287 457.993L124.407 447.015L105.864 457.993L124.407 468.971L143.287 457.993Z" fill="#DFEEFB"/>
<path d="M103.504 434.321L84.6237 423.343L66.0806 434.321L84.6237 445.299L103.504 434.321Z" fill="#DFEEFB"/>
<path d="M63.7207 411.336L45.1776 400.358L26.2974 411.336L45.1776 422.314L63.7207 411.336Z" fill="#DFEEFB"/>
<path d="M84.6237 434.321V375.657L103.504 364.679V423.343L84.6237 434.321Z" fill="#C23D28"/>
<path d="M84.6238 375.657L66.0806 364.679V423.343L84.6238 434.321V375.657Z" fill="#7545DF"/>
<path d="M84.6237 434.321V375.657L103.504 364.679V423.343L84.6237 434.321Z" fill="#7545DF"/>
<path d="M124.407 457.993V425.058L143.287 414.08V447.015L124.407 457.993Z" fill="#7545DF"/>
<path d="M124.407 425.058L105.864 414.08V447.015L124.407 457.993V425.058Z" fill="#7545DF"/>
<path d="M143.287 414.08L124.407 403.102L105.864 414.08L124.407 425.058L143.287 414.08Z" fill="#8D60F1"/>
<path d="M45.1776 411.336V330.715L63.7207 319.737V400.358L45.1776 411.336Z" fill="#7545DF"/>
<path d="M45.1777 330.715L26.2974 319.737V400.358L45.1777 411.336V330.715Z" fill="#7545DF"/>
<path d="M63.7207 319.737L45.1776 308.759L26.2974 319.737L45.1776 330.715L63.7207 319.737Z" fill="#8D60F1"/>
<path d="M103.504 364.679L84.6237 353.701L66.0806 364.679L84.6237 375.657L103.504 364.679Z" fill="#8D60F1"/>
</svg>
