<svg width="102" height="102" viewBox="0 0 102 102" fill="none" xmlns="http://www.w3.org/2000/svg">
<g clip-path="url(#clip0_18_48)">
<path d="M67.4637 63.2556C67.4637 68.7219 61.5135 82.6049 56.7673 92.8088C54.486 97.7132 47.5142 97.7132 45.2329 92.8088C40.4868 82.6049 34.5365 68.7219 34.5365 63.2556C34.5365 54.1629 41.9076 46.792 51.0001 46.792C60.0926 46.792 67.4637 54.1629 67.4637 63.2556Z" fill="#E4187A"/>
<path d="M52.7305 46.8835C52.1617 46.8242 51.5846 46.7925 50.9999 46.7925C41.9071 46.7925 34.5363 54.1636 34.5363 63.2561C34.5363 68.7224 40.4865 82.6054 45.2327 92.8093C47.2946 97.2425 53.1885 97.6675 55.9871 94.0863C49.3708 77.5948 50.5536 59.3466 52.7305 46.8835Z" fill="#C61469"/>
<path d="M59.3475 33.5617C73.6385 29.0915 88.5559 33.8976 97.8234 38.1914C101.327 39.8148 101.418 44.7483 97.981 46.5087C93.0967 49.0105 85.8814 53.4284 75.5107 61.2244C65.1454 69.0164 52.709 63.2282 49.5727 54.6936C46.4364 46.1591 50.6696 36.2763 59.3475 33.5617Z" fill="#E4187A"/>
<path d="M49.5704 54.6936C48.2468 51.0915 48.2402 47.251 49.3221 43.8089C56.4972 41.6376 78.874 36.0655 100.427 43.235C100.185 44.5598 99.372 45.7951 97.9786 46.5089C93.0944 49.0107 85.8791 53.4286 75.5084 61.2246C65.1431 69.0166 52.7067 63.2283 49.5704 54.6936Z" fill="#C61469"/>
<path d="M42.6525 33.5617C28.3616 29.0915 13.4441 33.8976 4.17666 38.1914C0.673008 39.8148 0.582164 44.7483 4.01908 46.5087C8.90332 49.0105 16.1186 53.4284 26.4893 61.2244C36.8547 69.0164 49.2911 63.2282 52.4274 54.6936C55.5635 46.1591 51.3305 36.2763 42.6525 33.5617Z" fill="#C61469"/>
<path d="M52.4295 54.6936C53.7531 51.0915 53.7597 47.251 52.6777 43.8089C45.5027 41.6376 23.1259 36.0655 1.57324 43.235C1.81469 44.5598 2.6279 45.7951 4.02124 46.5089C8.90548 49.0107 16.1208 53.4286 26.4915 61.2246C36.857 69.0166 49.2934 63.2283 52.4295 54.6936Z" fill="#A71159"/>
<path d="M67.4637 38.7447C67.4637 33.2784 61.5135 19.3954 56.7673 9.19145C54.486 4.28709 47.5142 4.28709 45.2329 9.19145C40.4868 19.3954 34.5365 33.2784 34.5365 38.7447C34.5365 47.8374 41.9076 55.2083 51.0001 55.2083C60.0926 55.2083 67.4637 47.8372 67.4637 38.7447Z" fill="#F072AE"/>
<path d="M53.4581 5.99799C50.5164 4.78754 46.7867 5.85017 45.2328 9.19106C40.4866 19.395 34.5361 33.278 34.5361 38.7443C34.5361 47.837 41.9072 55.2081 50.9999 55.2081C51.9319 55.2081 52.8443 55.1266 53.734 54.9778C48.8932 34.795 53.4418 6.10059 53.4581 5.99799Z" fill="#ED539D"/>
<path d="M59.2318 46.9762C59.2318 44.5619 56.9105 35.7489 54.7332 28.0138C53.6718 24.2428 48.3282 24.2428 47.2667 28.0138C45.0895 35.7489 42.7682 44.5619 42.7682 46.9762C42.7682 51.5226 46.4537 55.2081 51.0001 55.2081C55.5465 55.2081 59.2318 51.5226 59.2318 46.9762Z" fill="#FFDE55"/>
<path d="M50.9999 55.2082C51.9392 55.2082 52.8409 55.0486 53.6818 54.7589C51.4959 45.4889 51.2686 34.463 51.6629 25.2419C49.863 24.9443 47.871 25.8669 47.2667 28.0139C45.0895 35.7489 42.7682 44.5619 42.7682 46.9763C42.7682 51.5226 46.4535 55.2082 50.9999 55.2082Z" fill="#FFCD00"/>
<path d="M47.9611 16.6418C42.2104 27.9945 35.8058 44.8754 35.7639 44.9856C34.9746 43.0606 34.5361 40.9542 34.5361 38.7447C34.5361 33.2783 40.4866 19.3954 45.2328 9.19145C47.514 4.28709 54.4859 4.28709 56.7671 9.19145C61.5133 19.3954 67.4638 33.2783 67.4638 38.7447C67.4638 40.9542 67.0255 43.0606 66.236 44.9856C66.1941 44.8754 59.7895 27.9945 54.0388 16.6418C52.7784 14.1536 49.2217 14.1536 47.9611 16.6418Z" fill="#ED539D"/>
<path d="M35.764 44.9836C35.8059 44.8734 42.2105 27.9922 47.9612 16.6398C48.8362 14.9125 50.8172 14.3854 52.3689 15.0562C52.8893 9.58544 53.4524 6.03218 53.4582 5.99652C50.5166 4.78607 46.7868 5.8487 45.2329 9.18959C40.4867 19.3936 34.5363 33.2765 34.5363 38.7428C34.5363 40.9522 34.9745 43.0583 35.764 44.9836Z" fill="#E4187A"/>
<path d="M72.747 44.7162C85.6898 52.2463 92.2094 66.4984 95.2941 76.2352C96.4604 79.9163 92.8808 83.3126 89.2624 81.9641C84.1202 80.0478 75.9909 77.7042 63.2391 75.3116C50.4939 72.9202 46.3735 59.8363 50.5555 51.7626C54.7375 43.6889 64.8878 40.1438 72.747 44.7162Z" fill="#F490C0"/>
<path d="M89.2626 81.9645C84.1204 80.0483 75.9911 77.7047 63.2393 75.312C50.4941 72.9206 46.3737 59.8368 50.5557 51.763C50.6822 51.5186 50.8146 51.2786 50.9519 51.0425C58.1056 53.1994 80.3344 61.2684 93.6 81.3796C92.4256 82.2353 90.8478 82.5552 89.2626 81.9645Z" fill="#F072AE"/>
<path d="M63.7873 45.6054C72.5151 49.0916 77.8727 57.3416 80.6824 63.1034C81.7449 65.2818 79.8344 67.7195 77.4639 67.2147C74.0951 66.4973 68.8323 65.7892 60.6952 65.4753C52.5624 65.1615 48.8017 57.4165 50.6564 52.0195C52.5114 46.6222 58.4875 43.4885 63.7873 45.6054Z" fill="#FFE477"/>
<path d="M77.4639 67.2148C74.0951 66.4974 68.8323 65.7892 60.6953 65.4754C52.5624 65.1617 48.8017 57.4167 50.6564 52.0196C50.7684 51.6939 50.8961 51.3769 51.0369 51.0684C56.1236 52.6099 68.5361 57.0553 80.0533 66.4994C79.4045 67.108 78.4767 67.4304 77.4639 67.2148Z" fill="#FFDE55"/>
<path d="M90.4031 76.9885C90.4906 76.7084 90.1334 65.0458 84.6485 55.2954C90.0525 62.1973 93.3533 70.1099 95.2941 76.2355C96.4603 79.9166 92.8808 83.3129 89.2624 81.9646C84.1201 80.0483 75.9909 77.7047 63.2391 75.3121C61.8501 75.0515 60.5636 74.6636 59.379 74.1694C65.0283 73.4819 77.183 72.5826 90.4031 76.9885Z" fill="#F072AE"/>
<path d="M29.2528 44.7162C16.3102 52.2463 9.79056 66.4984 6.70566 76.2352C5.53944 79.9163 9.11899 83.3126 12.7374 81.9641C17.8796 80.0478 26.0089 77.7042 38.7607 75.3116C51.5059 72.9202 55.6263 59.8363 51.4443 51.7626C47.2623 43.6889 37.1122 40.1438 29.2528 44.7162Z" fill="#F7AFD1"/>
<path d="M12.7374 81.9645C17.8796 80.0483 26.0089 77.7047 38.7607 75.312C51.5059 72.9206 55.6263 59.8368 51.4443 51.763C51.3178 51.5186 51.1854 51.2786 51.0481 51.0425C43.8944 53.1994 21.6656 61.2684 8.40002 81.3796C9.57442 82.2353 11.152 82.5552 12.7374 81.9645Z" fill="#F490C0"/>
<path d="M38.2125 45.6054C29.4847 49.0916 24.1272 57.3416 21.3174 63.1034C20.2549 65.2818 22.1654 67.7195 24.5359 67.2147C27.9047 66.4973 33.1675 65.7892 41.3046 65.4753C49.4375 65.1615 53.1981 57.4165 51.3432 52.0195C49.4885 46.6222 43.5123 43.4885 38.2125 45.6054Z" fill="#FFEB99"/>
<path d="M24.536 67.2148C27.9048 66.4974 33.1675 65.7892 41.3046 65.4754C49.4375 65.1617 53.1981 57.4167 51.3434 52.0196C51.2314 51.6939 51.1037 51.3769 50.9629 51.0684C45.8762 52.6099 33.4637 57.0553 21.9465 66.4994C22.5954 67.108 23.5231 67.4304 24.536 67.2148Z" fill="#FFE477"/>
<path d="M11.5967 76.9885C11.5092 76.7084 11.8664 65.0458 17.3513 55.2954C11.9473 62.1973 8.64645 70.1099 6.70566 76.2355C5.53944 79.9166 9.11899 83.3129 12.7374 81.9646C17.8796 80.0483 26.0089 77.7047 38.7607 75.3121C40.1496 75.0515 41.4362 74.6636 42.6207 74.1694C36.9717 73.4819 24.817 72.5826 11.5967 76.9885Z" fill="#F490C0"/>
<path d="M12.7374 81.9646C17.8796 80.0483 26.0089 77.7047 38.7607 75.3121C40.1497 75.0515 41.4362 74.6636 42.6208 74.1694C36.9717 73.4821 24.8172 72.5828 11.5969 76.9885C11.5957 76.9847 11.5947 76.978 11.5937 76.9698C10.4838 78.3711 9.41564 79.8399 8.40002 81.3795C9.57442 82.2351 11.152 82.5553 12.7374 81.9646Z" fill="#F072AE"/>
<path d="M89.2626 81.9646C84.1204 80.0483 75.991 77.7047 63.2393 75.3121C61.8503 75.0515 60.5638 74.6636 59.3792 74.1694C65.0283 73.4821 77.1828 72.5828 90.4031 76.9885C90.4043 76.9847 90.4053 76.978 90.4063 76.9698C91.5161 78.3711 92.5844 79.8399 93.6 81.3795C92.4256 82.2351 90.8478 82.5553 89.2626 81.9646Z" fill="#ED539D"/>
<path d="M51.1903 52.1876C50.1237 52.1423 49.2637 51.2996 49.1986 50.2342C49.1904 50.1067 48.2626 37.1255 39.4297 29.7709C38.5452 29.0344 38.4252 27.72 39.1617 26.8356C39.8984 25.9511 41.2125 25.831 42.0972 26.5675C47.4157 30.9963 50.2375 36.9778 51.7268 41.7892C53.3351 38.4578 55.8925 35.0564 59.8749 33.7025C60.9642 33.3321 62.1483 33.9151 62.5189 35.0048C62.8896 36.0943 62.3063 37.2785 61.2166 37.6488C58.0759 38.7166 56.1228 42.0061 55.0376 44.5776C53.7662 47.5902 53.3449 50.3797 53.3415 50.4075C53.1118 52.2918 51.2204 52.189 51.1903 52.1876Z" fill="#FFF5CC"/>
<path d="M98.4516 36.8359C90.7448 33.2651 79.1688 29.3383 67.1763 30.4836C66.489 28.3729 65.6013 25.9528 64.5072 23.206C64.202 22.4394 63.3326 22.066 62.5662 22.3708C61.7996 22.6762 61.4257 23.5454 61.7311 24.3118C65.2345 33.1069 65.9698 37.0152 65.9698 38.7446C65.9698 39.1787 65.9507 39.6118 65.9136 40.0427C65.4098 38.7717 64.803 37.257 64.1237 35.5926C64.0043 34.2357 63.4957 33.5914 63.1483 33.2231C60.2531 26.2444 57.6369 20.4382 55.3718 15.9666C54.5329 14.3105 52.8577 13.2815 51.0002 13.2815C49.1426 13.2815 47.4674 14.3103 46.6285 15.9668C45.3364 18.5176 43.911 21.5455 42.3838 24.9818C41.6795 24.624 40.8888 24.5164 40.136 24.6501C41.8096 20.4223 43.9717 15.4458 46.5877 9.82168C47.4072 8.05939 49.0568 7.00732 51 7.00732C52.9431 7.00732 54.5929 8.05939 55.4124 9.82168C56.8735 12.9628 58.219 15.9596 59.4114 18.7293C59.7375 19.4872 60.616 19.837 61.3745 19.5109C62.1325 19.1845 62.4823 18.3056 62.156 17.5478C60.9523 14.7517 59.595 11.7284 58.122 8.56162C56.8187 5.75941 54.0896 4.01904 51 4.01904C47.9103 4.01904 45.1812 5.75961 43.8781 8.56142C39.5941 17.7717 36.5692 25.0983 34.823 30.4836C22.8303 29.3379 11.2549 33.2655 3.54852 36.8361C1.40712 37.8282 0.0478497 39.9086 0.00123263 42.265C-0.0453845 44.6251 1.2332 46.7609 3.33794 47.8391C6.84877 49.6373 10.9477 52.1175 15.5341 55.2168C10.3379 62.1402 7.15019 69.8862 5.28132 75.7841C4.56851 78.034 5.18649 80.441 6.89399 82.0654C8.05802 83.1729 9.55953 83.757 11.0985 83.757C11.8207 83.757 12.5514 83.6283 13.2592 83.3645C19.1017 81.1871 27.0362 79.1144 36.8658 77.1959C38.6349 81.7742 40.9908 87.2318 43.8781 93.4392C45.1814 96.2408 47.9103 97.9816 51 97.9816C51 97.9816 51 97.9816 51.0002 97.9816C54.0896 97.9816 56.8189 96.241 58.1222 93.4392C59.9857 89.4329 61.649 85.6894 63.0662 82.3129C63.3858 81.552 63.0278 80.6761 62.2669 80.3569C61.5063 80.0374 60.6304 80.3954 60.311 81.1562C58.9081 84.4981 57.2602 88.2067 55.4124 92.1789C54.5929 93.9412 52.9431 94.9933 51 94.9933C49.0568 94.9933 47.4072 93.9412 46.5877 92.1789C43.8307 86.2514 41.5678 81.0253 39.8451 76.611C44.5244 75.5496 48.3818 73.043 51.0027 69.3985C53.7812 73.2488 57.9489 75.8395 62.964 76.7804C73.8013 78.8138 82.4741 81.0289 88.7411 83.3645C89.4491 83.6281 90.1794 83.757 90.9018 83.757C92.4408 83.757 93.9425 83.1725 95.1063 82.0652C96.8138 80.441 97.4318 78.034 96.719 75.7841C94.7266 69.4959 92.1226 63.7975 88.979 58.8475C88.1747 57.5811 87.3382 56.3698 86.4702 55.2144C91.0548 52.1161 95.1521 49.6367 98.6624 47.8387C100.767 46.7607 102.045 44.6249 101.999 42.2648C101.952 39.9084 100.593 37.8282 98.4516 36.8359ZM48.4292 60.3899C46.7544 62.5924 44.2038 63.8682 41.2472 63.9824C34.1931 64.2545 28.466 64.8504 24.225 65.7534C23.6815 65.8696 23.155 65.6781 22.8147 65.2428C22.4761 64.8095 22.4183 64.2547 22.6603 63.7585C27.8322 53.1531 34.2668 48.7701 38.7667 46.993C43.8498 44.9857 47.4126 48.731 47.5274 48.8495C47.664 49.7578 47.7059 50.302 47.7075 50.326C47.7999 51.8348 48.8117 53.0764 50.1901 53.5136C50.6041 55.7937 49.9467 58.3939 48.4292 60.3899ZM41.6608 34.25C42.2855 35.0601 42.8469 35.8984 43.351 36.7484C42.8254 38.7904 42.3977 40.5545 42.0714 42.0241C40.9986 41.6823 39.9027 41.4424 38.7978 41.3131C39.5698 39.362 40.5486 36.9285 41.6608 34.25ZM44.8756 43.1868C45.022 42.5078 45.1939 41.754 45.3908 40.9274C45.8334 42.0405 46.1936 43.122 46.4863 44.1321C45.9619 43.788 45.4248 43.4715 44.8756 43.1868ZM53.5693 52.921C54.206 52.4191 54.6871 51.6605 54.8216 50.6118C54.8379 50.5062 55.003 49.4777 55.4061 48.0529C57.7455 46.387 60.6778 45.9722 63.2334 46.9928C67.7265 48.7876 74.1681 53.1531 79.3398 63.7585C79.5818 64.2545 79.524 64.8093 79.1856 65.2426C78.8453 65.6777 78.3184 65.8694 77.7753 65.7532C73.5343 64.8504 67.8072 64.2545 60.7533 63.9822C57.5584 63.8591 55.5071 62.4673 54.3078 61.2415C54.7323 58.3895 54.4867 55.5026 53.5693 52.921ZM62.2144 38.8374C62.5785 39.7423 62.9116 40.5784 63.2071 41.3245C62.9973 41.3496 60.7987 41.763 59.9327 42.0409C59.8174 41.5209 59.6893 40.9639 59.5492 40.3734C60.1833 39.7981 62.049 38.9243 62.2144 38.8374ZM49.294 17.3171C49.6261 16.6612 50.264 16.2698 51 16.2698C51.7359 16.2698 52.3738 16.6612 52.7059 17.3169C54.7056 21.265 56.9891 26.2833 59.505 32.2561C59.4679 32.2674 58.2236 32.7372 57.6658 33.0238C57.213 31.345 56.7121 29.5309 56.1713 27.6091C55.5013 25.2294 53.4693 23.7941 50.9998 23.6917C46.8273 23.5185 45.7597 27.8543 45.7254 27.9764C45.4161 27.6392 45.0985 27.3057 44.7674 26.9786C46.4058 23.2633 47.9276 20.0145 49.294 17.3171ZM55.0471 34.7949C53.952 35.7354 52.9493 36.8769 52.0445 38.2203C51.101 35.8733 49.8042 33.3002 48.0342 30.8223C48.2577 30.0154 48.482 29.2112 48.7052 28.4189C49.0659 27.1367 50.1272 26.6799 51 26.6799C51.8727 26.6799 52.9342 27.1367 53.2949 28.4189C53.9418 30.7169 54.5297 32.8569 55.0471 34.7949ZM40.3099 27.792C40.5996 27.3804 41.0313 27.6242 41.1412 27.7159C46.3364 32.0419 48.989 37.9971 50.2995 42.2311C50.481 42.8176 51.0029 43.2334 51.6151 43.2794C52.2289 43.325 52.8055 42.9919 53.0722 42.4389C54.9293 38.5922 57.3799 36.1289 60.3556 35.117C60.5575 35.0487 60.9617 35.0782 61.1045 35.4864C61.2474 35.8946 60.937 36.1659 60.7356 36.2344C57.0703 37.4806 54.8652 41.1434 53.6607 43.9968C52.2925 47.2391 51.8608 50.2038 51.858 50.2267C51.8365 50.4056 51.7952 50.7083 51.2627 50.6953C51.2599 50.6955 51.2567 50.6951 51.2538 50.6949C50.9507 50.6822 50.7083 50.4447 50.6896 50.1387C50.6808 50.002 49.7068 36.3839 40.3856 28.6227C40.2224 28.4868 40.0204 28.2036 40.3099 27.792ZM39.4493 31.7897C38.1374 34.919 36.9818 37.7834 36.0891 40.0359C36.0524 39.607 36.0303 39.1761 36.0303 38.7446C36.0303 37.0469 36.7032 34.2259 37.9922 30.4332C38.1358 30.6081 39.1357 31.4915 39.4493 31.7897ZM12.2157 80.5643C11.062 80.9944 9.84242 80.7458 8.95371 79.9003C8.06759 79.0574 7.75959 77.8559 8.13014 76.6867C8.85749 74.3909 9.79202 71.8039 10.9758 69.0999C10.416 71.7593 9.94044 76.6973 10.1707 77.434C10.2903 77.8169 10.5588 78.1357 10.916 78.3183C11.1288 78.4273 11.6697 78.5363 12.0693 78.4058C18.3349 76.3622 25.1328 75.2117 32.1543 75.1037C24.0477 76.817 17.3585 78.6478 12.2157 80.5643ZM42.3885 72.6384C32.2663 71.4604 22.2219 72.2501 13.1718 74.9272C13.4895 71.1989 14.4968 59.5153 23.0404 51.2436C23.6333 50.6696 23.6674 49.7313 23.101 49.1312C22.5344 48.531 21.5885 48.5043 20.9887 49.0707C19.7079 50.2799 18.515 51.5543 17.4012 52.8712C12.6361 49.643 8.36721 47.0576 4.7002 45.1793C3.6045 44.6181 2.96481 43.5505 2.98891 42.3238C3.01322 41.1007 3.69195 40.0628 4.80479 39.547C12.0442 36.1928 22.8287 32.5071 33.9492 33.4085C33.3466 35.6454 33.0422 37.428 33.0422 38.7444C33.0422 39.6941 33.1201 40.6427 33.2677 41.5759C31.6192 41.9339 30.0119 42.5461 28.5014 43.4248C27.747 43.8639 26.9951 44.3361 26.267 44.8283C25.5833 45.2903 25.4036 46.2191 25.8656 46.9028C26.3275 47.5865 27.2563 47.7662 27.94 47.3042C28.613 46.8494 29.3077 46.4131 30.0043 46.0077C32.3692 44.6319 35.0268 44.0532 37.6657 44.2149C37.6633 44.2159 37.6609 44.2167 37.6585 44.2177C32.6766 46.2075 25.5645 50.9858 19.9745 62.4486C19.2312 63.9726 19.4175 65.7484 20.4604 67.083C21.3088 68.1684 22.9964 69.0353 24.8474 68.6762C28.9369 67.8827 34.4784 67.234 41.3624 66.9683C45.228 66.8192 49.4283 64.7127 51.2075 61.6408C50.9446 62.9166 50.5202 64.1776 49.9345 65.3791C48.3316 68.6662 45.7173 71.1578 42.3885 72.6384ZM52.6943 66.5314C53.0081 65.872 53.2812 65.1974 53.5135 64.5127C55.5055 66.0204 57.93 66.8641 60.6377 66.9685C67.5217 67.2342 73.0753 67.8219 77.1527 68.6764C78.9286 69.0485 80.6915 68.1685 81.5397 67.083C82.5826 65.7486 82.7689 63.9728 82.0254 62.4488C76.4521 51.02 69.3659 46.2368 64.3862 44.2364C67.0227 44.0801 69.848 44.3843 71.9958 46.0081C88.9788 58.8477 88.5092 71.1871 88.8281 74.9274C79.7828 72.2515 69.7442 71.4612 59.6269 72.6368C56.7018 71.3339 54.3165 69.2477 52.6943 66.5314ZM93.0464 79.9003C92.1575 80.746 90.9379 80.9944 89.7844 80.5643C84.6434 78.6486 77.9572 76.8184 69.8548 75.1057C76.8732 75.2145 83.6941 76.2847 89.931 78.406C90.4311 78.5761 90.8717 78.4273 91.0845 78.3185C91.4417 78.1354 91.7435 77.8255 91.8296 77.4338C92.2065 75.7191 91.0367 69.1642 91.0116 69.0324C92.0324 71.3724 92.9926 73.9172 93.8704 76.6869C94.2405 77.8559 93.9325 79.0572 93.0464 79.9003ZM97.3001 45.1791C93.6331 47.0576 89.3646 49.6434 84.5997 52.8714C81.2893 48.9615 77.5743 45.7963 73.4985 43.425C71.9962 42.5509 70.3949 41.9333 68.7344 41.5733C68.8818 40.6408 68.9579 39.6943 68.9579 38.7446C68.9579 37.4152 68.6585 35.6442 68.054 33.4083C79.1732 32.5085 89.9565 36.1932 97.1951 39.547C98.3082 40.0628 98.9869 41.1007 99.011 42.3238C99.0353 43.5505 98.3958 44.6182 97.3001 45.1791Z" fill="black"/>
</g>
<defs>
<clipPath id="clip0_18_48">
<rect width="102" height="102" fill="white"/>
</clipPath>
</defs>
</svg>
