<svg width="121" height="102" viewBox="0 0 121 102" fill="none" xmlns="http://www.w3.org/2000/svg">
<path d="M120.83 54.2395L120.786 54.1651C119.117 51.2653 116.016 49.451 112.678 49.451C112.501 49.451 112.324 49.4659 112.146 49.4659C112.885 48.4844 113.594 47.4583 114.258 46.3876C116.282 45.0938 117.714 43.116 118.32 40.7664C118.94 38.3275 118.571 35.7995 117.301 33.6432L117.256 33.5688C116.887 32.9443 116.075 32.7361 115.455 33.1078L115.381 33.1525C111.157 35.6805 109.636 41.0489 111.777 45.4061C108.041 51.3396 102.783 55.8604 96.7429 58.3736L108.484 48.529C108.779 48.2762 108.956 47.9044 108.956 47.5178C108.956 47.1311 108.779 46.7594 108.484 46.5066L99.1502 38.6844C99.2979 36.9148 99.2831 35.1303 99.0763 33.3309C103.684 32.5576 107.096 28.4086 106.874 23.6053V23.531C106.845 22.8023 106.224 22.2372 105.515 22.2669H105.427C102.074 22.4305 99.2093 24.3489 97.6881 27.1149C97.4961 26.5349 97.2894 25.9698 97.0531 25.3898C96.5509 24.1407 95.9602 22.9212 95.2956 21.7316C99.4899 20.1701 102.074 15.7386 101.233 11.1732L101.218 11.0988C101.085 10.385 100.405 9.90917 99.6818 10.043L99.608 10.0579C95.8568 10.7568 93.0656 13.6418 92.2386 17.1513C91.0128 15.6196 89.6689 14.1771 88.1773 12.8387C91.4854 9.71585 92.1204 4.52589 89.4769 0.644573L89.4326 0.570219C89.2406 0.287671 88.9304 0.079478 88.5908 0.0199942C88.2511 -0.0394896 87.8967 0.0348654 87.6013 0.228188L87.5422 0.2728C85.4894 1.70041 84.1012 3.84183 83.6434 6.3104C83.4661 7.30676 83.4366 8.31798 83.5695 9.29946C82.5357 8.63027 81.4576 8.00569 80.35 7.42572C78.5926 5.06124 75.8161 3.66338 72.8772 3.66338C70.9425 3.66338 69.0817 4.25821 67.4867 5.38841L67.4277 5.43302C66.8369 5.8494 66.704 6.68218 67.1175 7.27701L67.1618 7.3365C68.9045 9.83482 71.7696 11.3219 74.7971 11.3219C76.4954 11.3219 78.1347 10.8609 79.5673 9.9984C80.9703 10.7419 82.2994 11.5747 83.5547 12.467C80.0694 13.2551 77.2929 16.0063 76.4954 19.6199L61.3578 6.92011C60.8705 6.5186 60.1616 6.5186 59.6742 6.92011L44.5219 19.6645C43.7391 16.0509 40.9479 13.2997 37.4626 12.5116C38.7179 11.6045 40.047 10.7866 41.4353 10.0281C42.8826 10.9055 44.5219 11.3517 46.2202 11.3517C49.2477 11.3517 52.1128 9.86456 53.8555 7.36624L53.8998 7.30676C54.3133 6.71192 54.1804 5.89402 53.5897 5.46276L53.5158 5.41815C51.9356 4.28795 50.06 3.69312 48.1253 3.69312C45.1864 3.69312 42.41 5.09099 40.6525 7.45547C39.5301 8.03543 38.4668 8.66001 37.433 9.32921C37.5659 8.34772 37.5512 7.3365 37.3592 6.34015C36.9014 3.87157 35.5279 1.71528 33.4751 0.302542L33.4012 0.257929C33.1206 0.0646068 32.7662 -0.00974816 32.4118 0.0497356C32.0721 0.109219 31.762 0.317413 31.57 0.599961L31.5257 0.659444C30.1079 2.72651 29.5762 5.22483 30.034 7.70827C30.4033 9.70098 31.378 11.5004 32.8253 12.8536C31.3337 14.192 29.975 15.6494 28.764 17.1662C28.4981 16.036 28.0403 14.9653 27.3757 13.9838C25.9727 11.9019 23.8313 10.5189 21.3798 10.043L21.3059 10.0281C20.9662 9.96866 20.6118 10.043 20.3164 10.2363C20.0358 10.4297 19.8291 10.7419 19.77 11.084L19.7552 11.1583C18.8987 15.7386 21.5127 20.1701 25.7069 21.7167C24.7322 23.4566 23.9347 25.256 23.3144 27.1C22.96 26.4605 22.5317 25.8508 22.0296 25.3006C20.346 23.4417 18.0569 22.3562 15.5462 22.2372H15.4724C14.7487 22.2074 14.1432 22.7725 14.1137 23.5012V23.5756C13.8922 28.3938 17.3185 32.5428 21.9262 33.3012C21.7194 35.0857 21.7047 36.8702 21.8524 38.6398L12.5335 46.4917C12.2381 46.7445 12.0609 47.1163 12.0609 47.5029C12.0609 47.8896 12.2381 48.2613 12.5335 48.5141L24.3778 58.4479C18.4999 56.024 13.0947 51.5924 9.24013 45.4805C10.2296 43.4729 10.4659 41.1976 9.91948 38.9967C9.29921 36.5579 7.77806 34.5057 5.63664 33.2268L5.5628 33.1822C5.26743 33.0037 4.89822 32.9591 4.57332 33.0335C4.23364 33.1227 3.95305 33.3458 3.77582 33.6432L3.73152 33.7176C1.11751 38.1045 2.49097 43.7554 6.74427 46.462C7.40885 47.5327 8.10297 48.5588 8.85616 49.5402C8.67893 49.5254 8.50171 49.5254 8.32449 49.5254C4.98683 49.5254 1.88547 51.3248 0.216639 54.2395L0.172333 54.3138C-0.182109 54.9384 0.0246493 55.7563 0.659691 56.1132L0.733533 56.1578C2.1513 56.9757 3.76106 57.4218 5.40035 57.4218C8.26542 57.4218 10.9533 56.0983 12.7107 53.8826C17.5695 58.552 23.4473 61.5857 29.4728 62.7159L34.0806 66.5823C33.8148 66.5229 33.5342 66.5377 33.2683 66.6567L33.1945 66.6864C29.6648 68.2925 27.612 71.8467 27.7154 75.5347C26.5339 74.5383 25.4115 73.4527 24.3334 72.2779C25.6921 67.6084 23.2701 62.5969 18.6771 60.8422L18.6033 60.8124C18.2784 60.6934 17.924 60.7083 17.5991 60.8422C17.2889 60.9909 17.0379 61.2585 16.9197 61.5857L16.8902 61.6601C16.0041 64.0097 16.0779 66.5675 17.1117 68.8576C18.1012 71.0734 19.8586 72.7687 22.0591 73.6906C22.8861 74.6424 23.7575 75.5346 24.6584 76.3674C21.1878 76.7838 18.175 79.1334 16.964 82.4794L16.9345 82.5537C16.6834 83.2378 17.0379 83.9962 17.7172 84.249L17.791 84.2788C18.8248 84.6654 19.9029 84.8439 20.9958 84.8439C24.4368 84.8439 27.5677 82.9255 29.1923 79.9513C30.8611 81.0666 32.589 82.0332 34.3612 82.8363C31.1712 84.5167 29.1036 87.9816 29.3547 91.8035V91.8778C29.3842 92.2347 29.5319 92.5619 29.7978 92.7849C30.034 92.9931 30.3442 93.1121 30.6543 93.1121C30.6839 93.1121 30.7134 93.1121 30.7429 93.1121H30.8168C35.4245 92.7998 39.0428 89.1564 39.4858 84.6654C41.4057 85.171 43.3404 85.5131 45.2603 85.6469C44.7286 86.1525 44.256 86.7176 43.8425 87.3422C42.469 89.439 41.9965 91.9522 42.5134 94.4208L42.5281 94.4951C42.661 95.1197 43.2075 95.5509 43.813 95.5509C43.9016 95.5509 43.9902 95.5361 44.0788 95.5212L44.1674 95.5063C48.8638 94.5248 51.9947 90.1379 51.5664 85.4387C52.9103 85.2454 54.2247 84.948 55.5243 84.5613L58.7143 87.2381L57.3999 89.1118C54.9779 92.5619 54.9779 97.9898 57.3999 101.44C57.8134 102.035 58.6405 102.183 59.2312 101.752C59.8219 101.336 59.9696 100.503 59.5413 99.9081C57.7839 97.3949 57.7839 93.1418 59.5413 90.6287L60.3979 89.3944L61.2545 90.6287C63.0119 93.1418 63.0119 97.3949 61.2545 99.9081C60.8409 100.503 60.9739 101.336 61.5646 101.752C61.8009 101.916 62.052 101.99 62.3178 101.99C62.7313 101.99 63.13 101.797 63.3959 101.425C65.8179 97.9749 65.8179 92.547 63.3959 89.097L62.1553 87.3273L65.5668 84.4572C66.9551 84.8885 68.3876 85.2156 69.8497 85.4238C69.4214 90.123 72.5671 94.4951 77.2486 95.4915L77.3225 95.5063C77.4111 95.5212 77.4997 95.5361 77.5883 95.5361C78.1938 95.5361 78.7402 95.1048 78.8732 94.4802L78.8879 94.4059C79.3901 91.9373 78.9175 89.4241 77.5588 87.3273C77.1453 86.7027 76.6727 86.1376 76.141 85.632C78.0609 85.4833 80.0103 85.1561 81.9155 84.6505C82.3585 89.1267 85.9768 92.7849 90.5845 93.0972H90.6583C90.6879 93.0972 90.7174 93.0972 90.747 93.0972C91.0571 93.0972 91.3672 92.9783 91.6035 92.7701C91.8694 92.547 92.0318 92.2198 92.0466 91.8629V91.7737C92.2976 87.937 90.2301 84.4721 87.0401 82.7917C88.8123 81.9886 90.5402 81.0369 92.209 79.9067C93.8336 82.8809 96.9645 84.7992 100.405 84.7992C101.498 84.7992 102.576 84.6059 103.61 84.2193L103.684 84.1895C104.363 83.9367 104.703 83.1783 104.467 82.4943L104.437 82.4199C103.226 79.0591 100.199 76.7095 96.7429 76.3079C97.6438 75.4752 98.5151 74.5829 99.3422 73.6312C103.994 71.6979 106.313 66.3593 104.511 61.6006L104.482 61.5262C104.231 60.8422 103.463 60.5001 102.798 60.7529L102.724 60.7827C98.1312 62.5374 95.7091 67.549 97.0678 72.2184C96.0045 73.3932 94.8673 74.4788 93.6859 75.4752C93.7893 71.802 91.7364 68.2479 88.2068 66.627L88.133 66.5972C87.4684 66.2998 86.7004 66.5972 86.4051 67.2515L86.3755 67.3259C84.5442 71.3857 85.8291 76.07 89.1963 78.6724C84.5295 81.4533 79.4048 82.9255 74.4131 83.0296C75.2254 81.721 75.7127 80.2339 75.8161 78.6427C75.8752 77.7207 75.8013 76.8284 75.6093 75.951L91.5445 62.5821C92.7407 62.359 93.9222 62.0616 95.1184 61.6749C99.9772 60.1135 104.452 57.3921 108.233 53.7487C109.99 55.9496 112.678 57.2731 115.528 57.2731C117.153 57.2731 118.777 56.8419 120.195 56.0091L120.269 55.9645C120.978 55.6819 121.185 54.8789 120.83 54.2395ZM115.617 36.2605C116.045 37.4948 116.104 38.8332 115.765 40.1269C115.44 41.4207 114.746 42.5658 113.786 43.4431C112.929 40.9151 113.653 38.0599 115.617 36.2605ZM104.171 25.0924C103.758 27.7394 101.794 29.9106 99.2093 30.5798C99.6375 27.9328 101.602 25.7616 104.171 25.0924ZM74.7823 8.7195C73.0692 8.7195 71.4299 8.0503 70.1893 6.90524C71.0311 6.53347 71.932 6.34015 72.8624 6.34015C74.5756 6.34015 76.2148 7.00934 77.4554 8.1544C76.6136 8.52618 75.7127 8.7195 74.7823 8.7195ZM48.1401 6.34015C49.0705 6.34015 49.9714 6.53347 50.8132 6.90524C49.5727 8.06517 47.9481 8.7195 46.2202 8.7195C45.2898 8.7195 44.3889 8.52618 43.5471 8.1544C44.7877 6.99447 46.427 6.34015 48.1401 6.34015ZM16.8311 25.0924C18.0864 25.4196 19.2236 26.1036 20.1244 27.1C21.0253 28.0963 21.5865 29.3009 21.7933 30.5947C19.2088 29.9106 17.2446 27.7394 16.8311 25.0924ZM7.20209 43.5175C5.2379 41.7032 4.51424 38.8629 5.38558 36.32C6.34553 37.1974 7.02487 38.3424 7.36455 39.6511C7.68945 40.9448 7.63038 42.2832 7.20209 43.5175ZM5.38558 54.7748C4.6767 54.7748 3.96781 54.6558 3.28847 54.4328C4.55855 53.02 6.37506 52.1724 8.30972 52.1724C9.01861 52.1724 9.72749 52.2914 10.4068 52.5144C9.15152 53.942 7.32024 54.7748 5.38558 54.7748ZM21.9853 70.7016C20.8924 70.0027 20.0211 68.9914 19.4746 67.772C18.9282 66.5526 18.751 65.2291 18.9577 63.9353C20.0506 64.6342 20.9219 65.6455 21.4684 66.8649C22.0148 68.0843 22.192 69.4078 21.9853 70.7016ZM20.9662 82.2117C20.6413 82.2117 20.3164 82.182 20.0063 82.1373C21.2173 80.1744 23.3735 78.9401 25.7217 78.9401C26.0466 78.9401 26.3715 78.9698 26.6816 79.0144C25.4706 80.9625 23.3144 82.2117 20.9662 82.2117ZM99.9772 66.8649C100.524 65.6455 101.395 64.6342 102.488 63.9353C102.695 65.2291 102.517 66.5526 101.971 67.772C101.425 68.9914 100.553 70.0027 99.4603 70.7016C99.2536 69.4078 99.4308 68.0843 99.9772 66.8649ZM95.7239 78.9401C98.0721 78.9401 100.228 80.1893 101.439 82.1373C101.114 82.182 100.804 82.2117 100.479 82.2117C98.1312 82.2117 95.975 80.9625 94.764 79.0144C95.0741 78.9698 95.399 78.9401 95.7239 78.9401ZM88.384 69.8093C90.5402 71.3857 91.5592 74.1368 90.9833 76.7541C88.8271 75.1629 87.7933 72.4266 88.384 69.8093ZM89.4326 90.2569C86.8629 89.5282 84.943 87.3273 84.5885 84.6654C87.1582 85.3792 89.0781 87.595 89.4326 90.2569ZM96.61 36.543L95.2956 35.4426C95.7387 35.1898 96.1522 34.9072 96.5509 34.5949C96.5953 35.2493 96.6248 35.8887 96.61 36.543ZM91.0276 31.8587C91.6035 31.6951 92.1943 31.6208 92.7998 31.6208C93.6859 31.6208 94.5572 31.7992 95.3695 32.1412C94.7049 32.7807 93.9369 33.2714 93.0804 33.5986L91.0276 31.8587ZM98.7514 13.0321C98.6924 15.7088 97.0531 18.1328 94.5867 19.1589C94.6458 16.4821 96.2851 14.0582 98.7514 13.0321ZM86.2131 6.81602C86.4494 5.4925 87.0696 4.3177 87.9557 3.36596C88.9895 5.83453 88.4579 8.73437 86.6118 10.6676C86.1097 9.44817 85.962 8.12466 86.2131 6.81602ZM85.386 14.9058C84.4113 17.3893 82.0631 19.0845 79.3605 19.1738C80.3352 16.7052 82.6834 14.995 85.386 14.9058ZM79.1538 21.8208C82.9788 21.8208 86.3164 19.5009 87.749 16.0657C90.7174 19.0548 93.0656 22.5346 94.6163 26.3564C95.0298 27.3677 95.3695 28.3938 95.6501 29.405C94.7344 29.1076 93.7745 28.9589 92.7998 28.9589C91.3672 28.9589 89.9642 29.286 88.7089 29.8957L79.0652 21.8059C79.0947 21.8208 79.1242 21.8208 79.1538 21.8208ZM41.642 19.1738C38.9246 19.0845 36.5765 17.3744 35.6017 14.9058C38.3339 14.995 40.6821 16.7052 41.642 19.1738ZM32.6333 7.21753C32.397 5.89402 32.5447 4.5705 33.0468 3.36596C33.9477 4.30283 34.5532 5.4925 34.8042 6.81602C35.0405 8.13953 34.8929 9.46304 34.3907 10.6676C33.4899 9.71585 32.8844 8.52617 32.6333 7.21753ZM22.2511 13.0321C23.4473 13.5228 24.4811 14.3705 25.2343 15.4709C25.9875 16.5714 26.3863 17.8503 26.4158 19.1589C23.9495 18.1328 22.2954 15.7237 22.2511 13.0321ZM33.2683 16.0806C34.7009 19.5009 38.0385 21.8208 41.8635 21.8208C41.8931 21.8208 41.9226 21.8208 41.9522 21.8208L32.3084 29.9106C31.0531 29.3009 29.6648 28.9737 28.2175 28.9737C27.2428 28.9737 26.2976 29.1224 25.382 29.4199C26.7112 24.5719 29.4285 19.9471 33.2683 16.0806ZM27.9222 33.5837C27.0804 33.2566 26.2976 32.7658 25.6331 32.1264C26.4453 31.7843 27.3167 31.6059 28.2028 31.6059C28.8083 31.6059 29.399 31.6951 29.975 31.8438L27.9222 33.5837ZM24.4664 34.6098C24.8503 34.9221 25.2639 35.2047 25.7069 35.4426L24.4073 36.5282C24.4073 35.8887 24.4221 35.2493 24.4664 34.6098ZM60.5013 9.68611L105.589 47.5029L60.5013 85.3197L15.4133 47.5029L60.5013 9.68611ZM30.4623 76.7541C29.8864 74.1368 30.9054 71.3857 33.0616 69.8093C33.6375 72.4266 32.6185 75.1777 30.4623 76.7541ZM31.9982 90.2569C32.3675 87.595 34.2726 85.3941 36.8423 84.6654C36.4878 87.3124 34.568 89.5282 31.9982 90.2569ZM32.1902 78.7468C35.5574 76.1444 36.8423 71.46 35.011 67.4002L34.9962 67.3705L45.7033 76.3526C45.5556 77.1258 45.5113 77.9289 45.5556 78.7319C45.659 80.3082 46.1464 81.8102 46.9586 83.1188C41.9817 82.9999 36.8571 81.5276 32.1902 78.7468ZM44.9501 92.5173C44.9501 91.2086 45.3193 89.9297 46.0578 88.7995C46.7814 87.6842 47.8004 86.8217 48.9967 86.3012C48.9967 88.9928 47.3869 91.4466 44.9501 92.5173ZM48.1696 78.5386C48.1696 78.494 48.1696 78.4494 48.1696 78.4047L50.252 80.1446C50.1191 80.8436 49.8828 81.5276 49.5136 82.1671C48.7308 81.1261 48.2583 79.877 48.1696 78.5386ZM52.1867 82.6876C52.29 82.4645 52.3639 82.2414 52.4525 82.0184L53.0432 82.5091C52.7626 82.5686 52.482 82.643 52.1867 82.6876ZM68.0479 82.4348L68.8897 81.721C68.9931 82.0481 69.1113 82.3753 69.2442 82.6876C68.8454 82.6132 68.4467 82.524 68.0479 82.4348ZM75.3878 88.8144C76.1115 89.9297 76.4954 91.2086 76.4954 92.5321C74.0439 91.4614 72.4489 89.0077 72.4489 86.3161C73.6452 86.8366 74.6642 87.6842 75.3878 88.8144ZM73.2612 78.5386C73.1726 79.877 72.7 81.1261 71.9172 82.1671C71.5037 81.4384 71.2527 80.6354 71.1345 79.8323L73.2759 78.033C73.2759 78.2114 73.2759 78.375 73.2612 78.5386ZM115.617 54.7153C113.682 54.7153 111.866 53.8677 110.596 52.4549C111.275 52.2319 111.984 52.1129 112.693 52.1129C114.627 52.1129 116.459 52.9606 117.714 54.3733C117.035 54.5964 116.326 54.7153 115.617 54.7153Z" fill="black"/>
<path d="M76.9796 41.1685L79.6093 38.9373L75.5453 37.5826C73.7921 37.0248 71.8796 37.1841 70.2859 38.1404L71.0031 42.4435C73.075 43.081 75.3062 42.6029 76.9796 41.1685Z" fill="#305C1E"/>
<path d="M69.8875 36.7859C73.3937 34.7937 75.625 31.0484 75.625 26.9844V25.3906C70.6047 25.3906 66.2219 28.7375 64.8672 33.5984" fill="#305C1E"/>
<path d="M64.4688 58.8593C64.4688 64.9952 69.4891 70.0155 75.625 70.0155V68.4218C75.625 62.8437 71.4812 58.1421 65.9031 57.3452" fill="#305C1E"/>
<path d="M67.1781 55.0343L69.7281 56.9468C71.4015 58.1422 73.5531 58.5406 75.5453 57.8234L79.6094 56.4687L76.9797 54.2375C75.1469 52.7234 72.6765 52.2453 70.4453 53.2015L67.5765 54.3968" fill="#305C1E"/>
<path d="M71.4813 45.3127L70.2063 37.6627C70.1266 36.9455 69.6485 36.308 69.011 35.9893L65.1063 33.758C64.6282 33.5189 64.0703 33.3596 63.5922 33.4393L58.8907 34.1564L55.7032 33.3596L52.675 30.9689C52.1172 30.4908 51.2407 30.4908 50.6828 30.9689L48.2125 32.9611C47.8938 33.2002 47.4953 33.3596 47.0172 33.2799L42.236 32.7221C41.3594 32.6424 40.5625 33.2799 40.4828 34.1564C40.4828 34.2361 40.4828 34.2361 40.4828 34.3158V34.9533L36.4985 40.0533C35.5422 41.3283 35.3828 43.0814 36.1797 44.4361L36.8172 45.5518L36.5782 45.3127L34.9047 47.3846C34.1078 48.4205 34.2672 49.9346 35.3032 50.7314C35.3032 50.7314 35.3032 50.7314 35.3828 50.8111L39.7657 54.0783C39.7657 54.0783 37.375 61.2502 45.3438 64.4377C53.3125 67.6252 56.5 62.0471 56.5 62.0471C56.5797 62.0471 56.6594 62.0471 56.6594 62.0471L61.2813 61.4096C61.7594 61.3299 62.2375 61.0908 62.636 60.7721L65.7438 57.6643C65.9032 57.5049 66.0625 57.2658 66.2219 57.0268L71.2422 46.9064C71.4813 46.3486 71.561 45.8705 71.4813 45.3127Z" fill="#BD0000"/>
<path d="M49.2485 45.233L50.6829 46.269C51.2407 46.6674 51.9579 46.8268 52.5954 46.6674L58.811 45.3924C59.7672 45.233 60.5641 44.4361 60.7235 43.4002L61.1219 40.7705C61.2813 39.8143 60.8032 38.858 60.0063 38.3002L57.2969 36.7064C56.8985 36.4674 56.5 36.3877 56.1016 36.3877H54.0297C53.3922 36.3877 52.7547 36.6268 52.3563 37.1049L51.2407 38.2205C51.0016 38.4596 50.9219 38.858 51.0813 39.1768L51.4797 39.9736L50.4438 40.2924C49.9657 40.4518 49.4875 40.7705 49.2485 41.2486L48.7704 41.9658C47.9735 43.0814 48.2125 44.5158 49.2485 45.233ZM50.0454 42.9221L50.5235 42.2049C50.6032 42.0455 50.7625 41.9658 50.9219 41.8861L51.7985 41.5674C51.9579 42.7627 53.3125 43.6393 54.986 43.6393C56.7391 43.6393 58.1735 42.6033 58.1735 41.2486C58.1735 39.8939 56.7391 38.858 54.986 38.858C54.2688 38.858 53.5516 39.0174 52.9938 39.4158L52.8344 39.0174L53.5516 38.3002C53.711 38.1408 53.8704 38.0611 54.1094 38.0611H56.1813C56.3407 38.0611 56.5 38.0611 56.5797 38.1408L59.2891 39.7346C59.6079 39.8939 59.6875 40.2127 59.6875 40.5314L59.2891 43.1611C59.2094 43.4799 58.9704 43.7189 58.6516 43.7986L52.436 45.0736C52.1969 45.1533 51.9579 45.0736 51.7985 44.9143L50.3641 43.8783C49.886 43.7189 49.8063 43.2408 50.0454 42.9221ZM53.3125 41.3283C53.3125 41.0096 53.95 40.5314 54.9063 40.5314C55.8625 40.5314 56.5 41.0096 56.5 41.3283C56.5 41.6471 55.8625 42.1252 54.9063 42.1252C53.95 42.1252 53.3125 41.6471 53.3125 41.3283Z" fill="black"/>
<path d="M67.4302 59.898L66.3032 61.0249L67.881 62.6026L69.0079 61.4757L67.4302 59.898Z" fill="black"/>
<path d="M34.9047 51.4484L38.8891 54.3969C38.4906 56.3094 37.8531 62.2859 45.1047 65.1547C46.6188 65.7922 48.2922 66.1906 49.9656 66.1906C52.7547 66.2703 55.3047 64.9953 56.9781 62.7641L61.4406 62.1266C62.1578 62.0469 62.7156 61.7281 63.2734 61.25L63.9109 60.6125C64.7078 66.5094 69.7281 70.8125 75.625 70.8125C76.1031 70.8125 76.4219 70.4938 76.4219 70.0156V68.4219C76.4219 64.4375 74.4297 60.6922 71.0828 58.4609C72.5969 59.0187 74.2703 59.0984 75.7844 58.5406L79.8484 57.1859C80.2469 57.0266 80.4859 56.6281 80.3266 56.15C80.2469 55.9906 80.1672 55.9109 80.0875 55.8313L77.4578 53.6C75.4656 51.8469 72.5969 51.3688 70.1266 52.4047L69.1703 52.8031L71.9594 47.225C72.2781 46.5875 72.3578 45.95 72.2781 45.3125L71.9594 43.5594C72.1984 43.5594 72.5172 43.6391 72.8359 43.6391C74.5094 43.6391 76.1828 43.0016 77.4578 41.9656L80.0875 39.7344C80.4063 39.4156 80.4859 38.9375 80.1672 38.6188C80.0875 38.5391 79.9281 38.4594 79.8484 38.3797L75.7844 37.025C74.2703 36.5469 72.5969 36.5469 71.0828 37.1047C74.4297 34.7141 76.4219 30.9688 76.4219 26.9844V25.3906C76.4219 24.9125 76.1031 24.5938 75.625 24.5938C70.525 24.5938 65.9828 27.8609 64.3094 32.7219C64.0703 32.7219 63.7516 32.7219 63.5125 32.7219L58.8109 33.3594C57.8547 32.8812 56.8984 32.5625 55.8625 32.4828L53.1531 30.3312C52.2766 29.6141 51.0016 29.6141 50.2047 30.3312L47.7344 32.3234C47.575 32.4828 47.3359 32.4828 47.1766 32.4828L42.3953 31.925C41.1203 31.7656 39.925 32.7219 39.7656 33.9969C39.7656 34.0766 39.7656 34.1563 39.7656 34.2359V34.5547L36.0203 39.4156C34.825 40.9297 34.6656 43.0016 35.6219 44.675L35.7812 44.9141L34.3469 46.9062C33.2312 48.2609 33.4703 50.2531 34.825 51.3687C34.825 51.3687 34.825 51.3688 34.9047 51.4484ZM45.6625 63.7203C40.2437 61.5687 40.0844 57.5047 40.3234 55.5125C40.6422 55.6719 40.9609 55.8312 41.2797 55.9109C44.2281 56.8672 46.3 57.5047 47.8141 57.9031V59.1781C47.8141 60.2141 48.3719 61.25 49.2484 61.8078L49.9656 62.2859C50.5234 62.6047 51.0813 62.8438 51.7188 62.8438H54.8266C53.3922 64.1188 50.4438 65.6328 45.6625 63.7203ZM74.8281 67.8641L70.6844 63.0828L69.4891 64.1187L73.7125 68.9797C68.9313 68.1031 65.425 63.9594 65.2656 59.0984L66.2219 58.1422C71.0031 59.0187 74.5094 63.0828 74.8281 67.8641ZM70.7641 53.8391C72.6766 53.0422 74.9078 53.4406 76.5016 54.7953L78.0953 56.15L75.3859 57.0266C73.6328 57.5844 71.8 57.2656 70.2859 56.2297L68.3734 54.875L70.7641 53.8391ZM69.1703 57.425C68.5328 57.1859 67.8953 56.9469 67.1781 56.7875L67.4969 56.2297L69.1703 57.425ZM75.3063 38.3797L78.0156 39.2562L76.4219 40.6109C75.1469 41.7266 73.3938 42.2047 71.7203 41.8063L71.1625 38.6188C72.5172 37.9813 73.9516 37.9016 75.3063 38.3797ZM73.7125 26.3469L69.4891 31.2078L70.6844 32.2438L74.8281 27.4625C74.6688 30.8094 72.8359 33.8375 70.0469 35.6703C69.8875 35.5109 69.6484 35.3516 69.4891 35.2719L65.9031 33.2C67.0188 29.6938 70.0469 27.0641 73.7125 26.3469ZM63.7516 34.2359C64.0703 34.1563 64.4688 34.2359 64.7875 34.3953L68.6922 36.6266C69.0906 36.8656 69.4094 37.2641 69.4891 37.7422L70.7641 45.3922C70.8438 45.7109 70.7641 46.0297 70.6047 46.3484L65.5844 56.4688C65.5047 56.6281 65.425 56.7875 65.2656 56.8672L62.0781 60.1344C61.8391 60.3734 61.5203 60.5328 61.2016 60.6125L56.5797 61.25C56.5 61.25 56.4203 61.25 56.3406 61.25H51.6391C51.3203 61.25 51.0016 61.1703 50.7625 61.0109L50.0453 60.5328C49.5672 60.2141 49.3281 59.7359 49.3281 59.1781V58.3813C50.125 58.6203 50.9219 58.7797 51.7188 58.8594C53.3922 58.8594 55.9422 56.5484 56.8188 55.6719H58.3328C58.8109 55.6719 59.3688 55.5125 59.7672 55.1938L65.2656 51.1297C65.7438 50.8109 66.0625 50.2531 66.1422 49.6953L66.7797 46.4281V46.3484L68.0547 42.4437C68.2938 41.7266 68.2141 40.9297 67.7359 40.2922L64.7078 36.0687C64.3891 35.3516 63.5922 34.9531 62.875 34.9531H60.8031C60.7234 34.8734 60.6438 34.7937 60.5641 34.7141L63.7516 34.2359ZM40.4828 39.4953C40.4828 39.3359 40.5625 39.1766 40.5625 38.9375C41.1203 38.0609 41.7578 37.1844 42.5547 36.4672C42.7937 36.1484 43.2719 36.1484 43.5906 36.3875L44.7859 37.2641C44.0687 37.9016 43.75 38.7781 43.75 39.6547C43.75 43.0812 46.2203 46.3484 46.3 46.5078C46.3797 46.5875 46.3797 46.5875 46.4594 46.6672L50.4438 49.8547C50.5234 49.8547 50.5234 49.9344 50.6031 49.9344C50.6828 50.0937 53.95 51.6875 56.5 51.6875C58.6516 51.6875 59.7672 49.6953 60.2453 48.6594C61.1219 48.4203 61.9188 47.8625 62.3172 47.0656L64.3891 43.4C64.4688 43.1609 64.4688 42.9219 64.4688 42.6828C63.8313 40.5313 62.9547 38.4594 61.9188 36.5469H62.875C63.1141 36.5469 63.3531 36.7062 63.5125 36.8656L66.5406 41.0891C66.7 41.3281 66.7 41.5672 66.6203 41.8063L65.3453 45.7109C65.3453 45.7906 65.2656 45.8703 65.2656 46.0297L64.6281 49.2969C64.6281 49.4563 64.4688 49.6953 64.3094 49.775L60.4844 52.6438C60.9625 51.8469 61.2813 50.9703 61.3609 50.0141H59.7672C59.7672 50.0141 59.6875 52.6438 56.4203 53.9984H55.9422C54.3484 53.6797 49.1688 51.1297 44.3078 46.9859C39.7656 43.2406 40.2437 40.6109 40.4828 39.4953ZM48.5313 40.5312C48.5313 38.6187 49.8859 36.9453 51.7984 36.5469H51.8781C52.1172 36.4672 52.2766 36.3875 52.3563 36.2281L53.7906 34.1562C54.7469 34.0766 57.4563 33.9172 59.1297 35.5906C61.0422 37.5031 62.4766 41.7266 62.7953 42.9219L60.8828 46.3484C60.4047 47.225 59.2891 47.5438 58.4922 47.0656C58.2531 46.9063 58.0938 46.7469 57.9344 46.5875L56.6594 47.5437C57.1375 48.1812 57.775 48.5797 58.4922 48.7391C58.1734 49.5359 57.3766 50.0938 56.5 50.2531C54.5078 50.2531 51.7984 48.9781 51.3203 48.7391L47.4953 45.7109C47.1766 45.2328 45.3438 42.5234 45.3438 39.8938C45.2641 39.4156 45.5031 38.9375 45.8219 38.6984C46.3 38.3797 46.9375 38.2203 47.4953 38.2203C47.0969 39.0172 46.9375 39.8141 46.9375 40.6906H48.5313V40.5312ZM41.5984 33.7578C41.7578 33.5984 41.9969 33.5188 42.2359 33.5984L47.0172 34.1562C47.6547 34.2359 48.2922 34.0766 48.7703 33.6781L51.2406 31.6859C51.5594 31.4469 51.9578 31.4469 52.2766 31.6859L53.4719 32.6422C53.3125 32.6422 53.2328 32.6422 53.2328 32.7219C52.9938 32.8016 52.8344 32.8813 52.7547 33.0406L51.3203 35.1922C50.2844 35.4313 49.4078 35.9891 48.6906 36.7063C47.9734 36.5469 47.2562 36.5469 46.5391 36.7063L44.5469 35.1922C43.5906 34.475 42.2359 34.5547 41.3594 35.4313V34.3156C41.3594 34.0766 41.4391 33.9172 41.5984 33.7578ZM37.2156 40.5312L39.7656 37.2641C39.0484 38.2203 38.9687 38.6187 38.9687 38.8578C38.9687 38.9375 38.9687 39.0172 38.8891 39.1766C38.65 40.4516 38.0125 43.7984 43.1922 48.2609C47.0172 51.5281 51.8781 54.3969 54.7469 55.3531C53.5516 56.3891 52.2766 57.2656 51.7188 57.2656C51.4797 57.2656 49.9656 57.0266 41.6781 54.3969C40.1641 53.9188 39.2078 52.4047 39.5266 50.8109C39.6859 49.775 39.5266 48.6594 38.9687 47.7031L36.9766 44.0375C36.3391 42.9219 36.4187 41.5672 37.2156 40.5312ZM35.5422 47.8625L36.5781 46.5875L37.6141 48.5C37.9328 49.1375 38.0922 49.8547 38.0125 50.5719C37.9328 50.9703 37.9328 51.3687 38.0125 51.6875L35.9406 50.0938C35.1437 49.6156 34.9844 48.5797 35.5422 47.8625Z" fill="black"/>
</svg>
