<svg width="70" height="70" viewBox="0 0 70 70" fill="none" xmlns="http://www.w3.org/2000/svg">
<g clip-path="url(#clip0_19_138)">
<path d="M65.1725 0C67.8385 0 70 2.16152 70 4.82754V24.1378C70 25.4703 68.9186 26.5516 67.5862 26.5516H66.3793H3.62072H2.41377C1.08145 26.5517 0 25.4703 0 24.138V4.82754C0 2.16152 2.16152 0 4.82754 0H65.1725Z" fill="#525464"/>
<path d="M67.5862 50.6899H66.3793H3.62072H2.41377C1.08145 50.6899 0 51.7712 0 53.1037V62.7589C0 66.7573 3.24297 70.0002 7.24145 70.0002H62.7587C66.757 70.0002 70 66.7573 70 62.7588V53.1036C70 51.7712 68.9186 50.6899 67.5862 50.6899Z" fill="#525464"/>
<path d="M7.24144 63.9653C7.24144 64.6315 6.70072 65.1722 6.03449 65.1722C5.36826 65.1722 4.82754 64.6315 4.82754 63.9653C4.82754 63.299 5.36826 62.7583 6.03449 62.7583C6.70072 62.7583 7.24144 63.299 7.24144 63.9653Z" fill="#707384"/>
<path d="M12.069 63.9653C12.069 64.6315 11.5283 65.1722 10.862 65.1722C10.1958 65.1722 9.65508 64.6315 9.65508 63.9653C9.65508 63.299 10.1958 62.7583 10.862 62.7583C11.5283 62.7583 12.069 63.299 12.069 63.9653Z" fill="#707384"/>
<path d="M16.8965 63.9653C16.8965 64.6315 16.3558 65.1722 15.6896 65.1722C15.0233 65.1722 14.4826 64.6315 14.4826 63.9653C14.4826 63.299 15.0233 62.7583 15.6896 62.7583C16.3558 62.7583 16.8965 63.299 16.8965 63.9653Z" fill="#707384"/>
<path d="M63.9655 57.9307H6.03449C4.70203 57.9307 3.62072 56.8492 3.62072 55.5169V16.8962C3.62072 15.5637 4.70217 14.4824 6.03449 14.4824H63.9655C65.298 14.4824 66.3793 15.5639 66.3793 16.8962V55.5169C66.3793 56.8494 65.298 57.9307 63.9655 57.9307Z" fill="#707384"/>
<path d="M61.5517 9.65531H49.4828L51.8965 4.82764H61.5517V9.65531Z" fill="#F0C419"/>
<path d="M43.4483 47.0694H26.5517C25.2193 47.0694 24.138 45.988 24.138 44.6556V27.759C24.138 26.4265 25.2194 25.3452 26.5517 25.3452H43.4483C44.7807 25.3452 45.862 26.4267 45.862 27.759V44.6555C45.862 45.988 44.7807 47.0694 43.4483 47.0694Z" fill="#556080"/>
<path d="M26.5517 26.5516C25.8867 26.5516 25.3448 27.0936 25.3448 27.7586V44.6551C25.3448 45.3201 25.8867 45.862 26.5517 45.862H43.4483C44.1133 45.862 44.6552 45.3201 44.6552 44.6551V27.7584C44.6552 27.0934 44.1133 26.5515 43.4483 26.5515H26.5517V26.5516ZM43.4483 48.2757H26.5517C24.5555 48.2757 22.931 46.6512 22.931 44.6549V27.7584C22.931 25.7622 24.5555 24.1377 26.5517 24.1377H43.4483C45.4445 24.1377 47.069 25.7622 47.069 27.7584V44.6549C47.069 46.6512 45.4445 48.2757 43.4483 48.2757Z" fill="#8697CB"/>
<path d="M41.0345 36.2069C41.0345 39.5391 38.3322 42.2413 35 42.2413C31.6678 42.2413 28.9655 39.5391 28.9655 36.2069C28.9655 32.8746 31.6678 30.1724 35 30.1724C38.3322 30.1724 41.0345 32.8746 41.0345 36.2069Z" fill="white"/>
<path d="M13.2758 24.1377H10.862C10.1958 24.1377 9.65508 23.597 9.65508 22.9308V20.517C9.65508 19.8508 10.1958 19.3101 10.862 19.3101H13.2758C13.942 19.3101 14.4828 19.8508 14.4828 20.517V22.9308C14.4828 23.597 13.942 24.1377 13.2758 24.1377Z" fill="#464656"/>
<path d="M50.6897 26.5515H60.3448V19.3101H50.6897V26.5515Z" fill="#464656"/>
<path d="M60.3448 20.8188V19.3101H58.333L50.6897 25.0428V26.5515H52.7015L60.3448 20.8188Z" fill="#525464"/>
</g>
<defs>
<clipPath id="clip0_19_138">
<rect width="70" height="70" fill="white"/>
</clipPath>
</defs>
</svg>
