<svg width="65" height="65" viewBox="0 0 65 65" fill="none" xmlns="http://www.w3.org/2000/svg">
<path d="M57.4167 49.31H63.9167V37.3933L54.1667 22.2266H42.25V49.31H46.5833" fill="#FDB62F"/>
<path d="M9.74999 49.3103H1.08328V14.6436H42.25V49.3103H20.5833" fill="#FDB62F"/>
<path d="M7.58328 43.8936H1.08328V46.0603H7.58328V43.8936Z" fill="#F46B27"/>
<path d="M42.25 43.8936H22.75V46.0603H42.25V43.8936Z" fill="#F46B27"/>
<path d="M63.9166 43.8936H59.5833V46.0603H63.9166V43.8936Z" fill="#DBDBDB"/>
<path d="M42.25 17.8936H4.3333V20.0603H42.25V17.8936Z" fill="#F46B27"/>
<path d="M15.1667 54.727C18.1583 54.727 20.5834 52.3018 20.5834 49.3103C20.5834 46.3187 18.1583 43.8936 15.1667 43.8936C12.1751 43.8936 9.75 46.3187 9.75 49.3103C9.75 52.3018 12.1751 54.727 15.1667 54.727Z" fill="#126099"/>
<path d="M52 54.727C54.9916 54.727 57.4167 52.3018 57.4167 49.3103C57.4167 46.3187 54.9916 43.8936 52 43.8936C49.0084 43.8936 46.5833 46.3187 46.5833 49.3103C46.5833 52.3018 49.0084 54.727 52 54.727Z" fill="#126099"/>
<path d="M16.25 48.2266H14.0833V50.3933H16.25V48.2266Z" fill="#DBDBDB"/>
<path d="M53.0834 48.2266H50.9167V50.3933H53.0834V48.2266Z" fill="#DBDBDB"/>
<path d="M19.5 9.22656H4.3333V11.3933H19.5V9.22656Z" fill="#DBDBDB"/>
<path d="M2.16671 9.22656H0V11.3933H2.16671V9.22656Z" fill="#DBDBDB"/>
<path d="M56.9508 26.5601H46.5833V36.3101H63.2233L56.9508 26.5601Z" fill="#87CED9"/>
<path d="M44.4167 22.2271H42.25V49.3103H44.4167V22.2271Z" fill="#FFA83D"/>
<path d="M63.2233 36.3105L57.3408 27.1562C54.4494 30.5872 50.7541 33.2478 46.5833 34.902V36.3103H63.2233V36.3105Z" fill="#6CBBC7"/>
<path d="M55.0767 21.6421C54.8774 21.3322 54.535 21.1449 54.1667 21.1438H43.3334V14.6438C43.3334 14.0459 42.8481 13.5605 42.2501 13.5605H1.08329C0.485342 13.5605 0 14.0459 0 14.6438V49.3105C0 49.9085 0.485342 50.3938 1.08329 50.3938H8.76408C9.38374 53.9299 12.7518 56.2937 16.2878 55.6751C18.9842 55.2027 21.0967 53.0913 21.5691 50.3938H45.5974C46.217 53.9299 49.5851 56.2937 53.1211 55.6751C55.8175 55.2027 57.93 53.0913 58.4024 50.3938H63.9166C64.5145 50.3938 64.9999 49.9085 64.9999 49.3105V37.3938C64.9999 37.1859 64.9392 36.9833 64.8266 36.8088L55.0767 21.6421ZM56.3333 27.6438L61.2408 35.2271H47.6667V27.6438H56.3333ZM15.1667 53.6438C12.7736 53.6438 10.8334 51.7036 10.8334 49.3105C10.8334 46.9175 12.7736 44.9772 15.1667 44.9772C17.5598 44.9772 19.5 46.9175 19.5 49.3105C19.5 51.7036 17.5598 53.6438 15.1667 53.6438ZM15.1667 42.8105C11.9968 42.8138 9.29284 45.1018 8.76421 48.2272H2.16671V46.0605H7.58342V43.8938H2.16671V15.7271H41.1667V17.8938H4.33329V20.0605H41.1666V43.8938H22.75V46.0605H41.1667V48.2272H21.5692C21.0404 45.1028 18.3365 42.8137 15.1667 42.8105ZM52 53.6438C49.6069 53.6438 47.6667 51.7036 47.6667 49.3105C47.6667 46.9175 49.6069 44.9772 52 44.9772C54.3931 44.9772 56.3333 46.9175 56.3333 49.3105C56.3333 51.7036 54.3931 53.6438 52 53.6438ZM58.4025 48.2271C57.7828 44.6911 54.4148 42.3272 50.8787 42.9459C48.1824 43.4183 46.0699 45.5296 45.5975 48.2271H43.3333V23.3105H53.5708L54.9683 25.4773H46.5833C45.9853 25.4773 45.5 25.9626 45.5 26.5605V36.3105C45.5 36.9085 45.9853 37.3938 46.5833 37.3938H62.6275L62.8333 37.708V43.8938H59.5833V46.0605H62.8333V48.2272H58.4025V48.2271Z" fill="black"/>
<path d="M16.25 48.2271H14.0833V50.3937H16.25V48.2271Z" fill="black"/>
<path d="M53.0834 48.2271H50.9167V50.3937H53.0834V48.2271Z" fill="black"/>
<path d="M19.5 9.22656H4.3333V11.3933H19.5V9.22656Z" fill="black"/>
<path d="M2.16671 9.22656H0V11.3933H2.16671V9.22656Z" fill="black"/>
</svg>
